0
SECTION
2
HEADER
9
$INSUNITS
70
4
9
$ACADVER
1
AC1014
9
$HANDSEED
5
FFFF
0
ENDSEC
0
SECTION
2
TABLES
0
TABLE
2
VPORT
5
8
100
AcDbSymbolTable
0
ENDTAB
0
TABLE
2
LTYPE
5
5
100
AcDbSymbolTable
0
LTYPE
5
14
100
AcDbSymbolTableRecord
100
AcDbLinetypeTableRecord
2
BYBLOCK
70
0
0
LTYPE
5
15
100
AcDbSymbolTableRecord
100
AcDbLinetypeTableRecord
2
BYLAYER
70
0
0
ENDTAB
0
TABLE
2
LAYER
5
2
100
AcDbSymbolTable
70
2
0
LAYER
5
50
100
AcDbSymbolTableRecord
100
AcDbLayerTableRecord
2
0
70
0
6
CONTINUOUS
0
ENDTAB
0
TABLE
2
STYLE
5
3
100
AcDbSymbolTable
70
1
0
STYLE
5
11
100
AcDbSymbolTableRecord
100
AcDbTextStyleTableRecord
2
STANDARD
70
0
0
ENDTAB
0
TABLE
2
VIEW
5
6
100
AcDbSymbolTable
70
0
0
ENDTAB
0
TABLE
2
UCS
5
7
100
AcDbSymbolTable
70
0
0
ENDTAB
0
TABLE
2
APPID
5
9
100
AcDbSymbolTable
70
2
0
APPID
5
12
100
AcDbSymbolTableRecord
100
AcDbRegAppTableRecord
2
ACAD
70
0
0
ENDTAB
0
TABLE
2
DIMSTYLE
5
A
100
AcDbSymbolTable
70
1
0
ENDTAB
0
TABLE
2
BLOCK_RECORD
5
1
100
AcDbSymbolTable
70
1
0
BLOCK_RECORD
5
1F
100
AcDbSymbolTableRecord
100
AcDbBlockTableRecord
2
*MODEL_SPACE
0
BLOCK_RECORD
5
1B
100
AcDbSymbolTableRecord
100
AcDbBlockTableRecord
2
*PAPER_SPACE
0
ENDTAB
0
ENDSEC
0
SECTION
2
BLOCKS
0
BLOCK
5
20
100
AcDbEntity
100
AcDbBlockBegin
2
*MODEL_SPACE
0
ENDBLK
5
21
100
AcDbEntity
100
AcDbBlockEnd
0
BLOCK
5
1C
100
AcDbEntity
100
AcDbBlockBegin
2
*PAPER_SPACE
0
ENDBLK
5
1D
100
AcDbEntity
100
AcDbBlockEnd
0
ENDSEC
0
SECTION
2
ENTITIES
0
LWPOLYLINE
5
100
100
AcDbEntity
8
0
100
AcDbPolyline
90
4
70
1
43
0.0
10
99.633600000000015
20
108.17
10
113.32700000000003
20
105.26000000000002
10
116.23899999999999
20
118.95299999999999
10
102.54400000000001
20
121.86399999999999
0
LWPOLYLINE
5
101
100
AcDbEntity
8
0
100
AcDbPolyline
90
4
70
1
43
0.0
10
176.41500000000002
20
104.63300000000001
10
173.50599999999997
20
118.32900000000001
10
159.81100000000001
20
115.419
10
162.72200000000001
20
101.72399999999999
0
LWPOLYLINE
5
102
100
AcDbEntity
8
0
100
AcDbPolyline
90
4
70
1
43
0.0
10
197.07900000000001
20
123.339
10
199.98900000000003
20
109.64500000000001
10
213.68400000000005
20
112.55600000000001
10
210.77200000000005
20
126.25
0
LWPOLYLINE
5
103
100
AcDbEntity
8
0
100
AcDbPolyline
90
4
70
1
43
0.0
10
83.909999999999997
20
125.82600000000001
10
81.001000000000005
20
112.13200000000001
10
94.694699999999997
20
109.221
10
97.605099999999993
20
122.91400000000002
0
LWPOLYLINE
5
104
100
AcDbEntity
8
0
100
AcDbPolyline
90
4
70
1
43
0.0
10
51.998700000000007
20
113.133
10
49.088300000000004
20
99.4392
10
62.782100000000007
20
96.527400000000014
10
65.693899999999999
20
110.22200000000001
0
LWPOLYLINE
5
105
100
AcDbEntity
8
0
100
AcDbPolyline
90
4
70
1
43
0.0
10
227.893
20
96.100200000000001
10
224.98099999999999
20
109.79500000000002
10
211.28799999999998
20
106.88400000000001
10
214.19799999999998
20
93.18980000000002
0
LWPOLYLINE
5
106
100
AcDbEntity
8
0
100
AcDbPolyline
90
4
70
1
43
0.0
10
84.327600000000004
20
106.262
10
70.634200000000007
20
109.17200000000001
10
67.722399999999993
20
95.477500000000006
10
81.415800000000019
20
92.567099999999996
0
LWPOLYLINE
5
107
100
AcDbEntity
8
0
100
AcDbPolyline
90
4
70
1
43
0.0
10
265.50900000000001
20
78.278199999999998
10
279.50900000000001
20
78.278199999999998
10
279.50900000000001
20
92.277500000000003
10
265.50900000000001
20
92.277500000000003
0
LWPOLYLINE
5
108
100
AcDbEntity
8
0
100
AcDbPolyline
90
4
70
1
43
0.0
10
227.47700000000003
20
76.536200000000008
10
241.17099999999999
20
79.446600000000004
10
238.25999999999999
20
93.1404
10
224.56500000000003
20
90.231000000000009
0
LWPOLYLINE
5
109
100
AcDbEntity
8
0
100
AcDbPolyline
90
4
70
1
43
0.0
10
11.191099999999992
20
92.277500000000003
10
11.191099999999992
20
78.278199999999998
10
25.1919
20
78.278199999999998
10
25.1919
20
92.277500000000003
0
LWPOLYLINE
5
110
100
AcDbEntity
8
0
100
AcDbPolyline
90
4
70
1
43
0.0
10
313.13400000000001
20
92.277500000000003
10
313.13400000000001
20
78.278199999999998
10
327.13400000000001
20
78.278199999999998
10
327.13400000000001
20
92.277500000000003
0
LWPOLYLINE
5
111
100
AcDbEntity
8
0
100
AcDbPolyline
90
4
70
1
43
0.0
10
137.31700000000001
20
80.684200000000018
10
140.22899999999998
20
94.378999999999991
10
126.53399999999999
20
97.289400000000015
10
123.62400000000001
20
83.596000000000004
0
LWPOLYLINE
5
112
100
AcDbEntity
8
0
100
AcDbPolyline
90
4
70
1
43
0.0
10
219.62500000000003
20
89.181200000000004
10
205.93099999999998
20
86.269300000000001
10
208.84299999999999
20
72.575900000000004
10
222.53700000000003
20
75.4863
0
LWPOLYLINE
5
113
100
AcDbEntity
8
0
100
AcDbPolyline
90
4
70
1
43
0.0
10
136.90100000000001
20
100.24799999999999
10
150.596
20
97.339100000000016
10
153.505
20
111.03299999999999
10
139.81100000000001
20
113.94300000000001
0
LWPOLYLINE
5
114
100
AcDbEntity
8
0
100
AcDbPolyline
90
4
70
1
43
0.0
10
314.75099999999998
20
130.37700000000001
10
300.75099999999998
20
130.37700000000001
10
300.75099999999998
20
116.37799999999999
10
314.75099999999998
20
116.37799999999999
0
LWPOLYLINE
5
115
100
AcDbEntity
8
0
100
AcDbPolyline
90
4
70
1
43
0.0
10
43.289700000000011
20
111.32700000000001
10
29.288799999999995
20
111.32700000000001
10
29.288799999999995
20
97.32820000000001
10
43.289700000000011
20
97.32820000000001
0
LWPOLYLINE
5
116
100
AcDbEntity
8
0
100
AcDbPolyline
90
4
70
1
43
0.0
10
246.52700000000004
20
100.06100000000002
10
243.61500000000004
20
113.75399999999999
10
229.92099999999999
20
110.845
10
232.83199999999999
20
97.150400000000019
0
LWPOLYLINE
5
117
100
AcDbEntity
8
0
100
AcDbPolyline
90
4
70
1
43
0.0
10
323.32500000000005
20
97.32820000000001
10
323.32500000000005
20
111.32700000000001
10
309.32400000000001
20
111.32700000000001
10
309.32400000000001
20
97.32820000000001
0
LWPOLYLINE
5
118
100
AcDbEntity
8
0
100
AcDbPolyline
90
36
70
1
43
0.0
10
303.02499999999998
20
97.558199999999999
10
303.02499999999998
20
103.828
10
303.84900000000005
20
103.828
10
303.84900000000005
20
106.62700000000001
10
303.02499999999998
20
106.62700000000001
10
303.02499999999998
20
109.85700000000001
10
296.274
20
109.85700000000001
10
296.274
20
106.62700000000001
10
294.75
20
106.62700000000001
10
294.75
20
111.32700000000001
10
280.74900000000002
20
111.32700000000001
10
280.74900000000002
20
106.62700000000001
10
279.22500000000002
20
106.62700000000001
10
279.22500000000002
20
109.85700000000001
10
272.47399999999999
20
109.85700000000001
10
272.47399999999999
20
106.62700000000001
10
271.64999999999998
20
106.62700000000001
10
271.64999999999998
20
103.828
10
272.47399999999999
20
103.828
10
272.47399999999999
20
97.558199999999999
10
274.19900000000001
20
97.558199999999999
10
274.19900000000001
20
96.358099999999993
10
277.5
20
96.358099999999993
10
277.5
20
97.558199999999999
10
279.22500000000002
20
97.558199999999999
10
279.22500000000002
20
102.027
10
280.74900000000002
20
102.027
10
280.74900000000002
20
97.32820000000001
10
294.75
20
97.32820000000001
10
294.75
20
102.027
10
296.274
20
102.027
10
296.274
20
97.558199999999999
10
298
20
97.558199999999999
10
298
20
96.358099999999993
10
301.30000000000001
20
96.358099999999993
10
301.30000000000001
20
97.558199999999999
0
LWPOLYLINE
5
119
100
AcDbEntity
8
0
100
AcDbPolyline
90
4
70
1
43
0.0
10
252.17400000000001
20
111.32700000000001
10
252.17400000000001
20
97.32820000000001
10
266.17500000000001
20
97.32820000000001
10
266.17500000000001
20
111.32700000000001
0
LWPOLYLINE
5
120
100
AcDbEntity
8
0
100
AcDbPolyline
90
4
70
1
43
0.0
10
206.34900000000002
20
105.83300000000001
10
192.65400000000002
20
102.92299999999999
10
195.56400000000002
20
89.229500000000002
10
209.25799999999998
20
92.139900000000011
0
LWPOLYLINE
5
121
100
AcDbEntity
8
0
100
AcDbPolyline
90
4
70
1
43
0.0
10
152.94200000000001
20
60.694400000000002
10
166.63499999999999
20
63.603400000000008
10
163.72499999999999
20
77.298200000000008
10
150.03100000000001
20
74.387799999999999
0
LWPOLYLINE
5
122
100
AcDbEntity
8
0
100
AcDbPolyline
90
4
70
1
43
0.0
10
249.982
20
73.227500000000006
10
235.98200000000003
20
73.227500000000006
10
235.98200000000003
20
59.228200000000008
10
249.982
20
59.228200000000008
0
LWPOLYLINE
5
123
100
AcDbEntity
8
0
100
AcDbPolyline
90
4
70
1
43
0.0
10
316.94499999999999
20
59.228200000000008
10
330.94400000000002
20
59.228200000000008
10
330.94400000000002
20
73.227500000000006
10
316.94499999999999
20
73.227500000000006
0
LWPOLYLINE
5
124
100
AcDbEntity
8
0
100
AcDbPolyline
90
4
70
1
43
0.0
10
126.95
20
77.725399999999993
10
113.25700000000001
20
80.637200000000021
10
110.34500000000001
20
66.942400000000006
10
124.04000000000002
20
64.031999999999996
0
LWPOLYLINE
5
125
100
AcDbEntity
8
0
100
AcDbPolyline
90
4
70
1
43
0.0
10
40.719700000000003
20
40.178199999999997
10
54.718999999999994
20
40.178199999999997
10
54.718999999999994
20
54.177500000000009
10
40.719700000000003
20
54.177500000000009
0
LWPOLYLINE
5
126
100
AcDbEntity
8
0
100
AcDbPolyline
90
4
70
1
43
0.0
10
68.837199999999996
20
56.290300000000002
10
71.747600000000006
20
69.983699999999999
10
58.054200000000009
20
72.894100000000009
10
55.142300000000006
20
59.200699999999998
0
LWPOLYLINE
5
127
100
AcDbEntity
8
0
100
AcDbPolyline
90
4
70
1
43
0.0
10
271.70099999999996
20
54.177500000000009
10
271.70099999999996
20
40.178199999999997
10
285.69999999999999
20
40.178199999999997
10
285.69999999999999
20
54.177500000000009
0
LWPOLYLINE
5
128
100
AcDbEntity
8
0
100
AcDbPolyline
90
4
70
1
43
0.0
10
193.88800000000003
20
49.9223
10
190.97800000000001
20
63.615700000000004
10
177.28300000000002
20
60.705300000000008
10
180.19499999999999
20
47.010500000000008
0
LWPOLYLINE
5
129
100
AcDbEntity
8
0
100
AcDbPolyline
90
4
70
1
43
0.0
10
311.89400000000001
20
54.177500000000009
10
297.89499999999998
20
54.177500000000009
10
297.89499999999998
20
40.178199999999997
10
311.89400000000001
20
40.178199999999997
0
LWPOLYLINE
5
130
100
AcDbEntity
8
0
100
AcDbPolyline
90
4
70
1
43
0.0
10
245.50700000000003
20
54.177500000000009
10
245.50700000000003
20
40.178199999999997
10
259.50700000000001
20
40.178199999999997
10
259.50700000000001
20
54.177500000000009
0
LWPOLYLINE
5
131
100
AcDbEntity
8
0
100
AcDbPolyline
90
4
70
1
43
0.0
10
182.35900000000001
20
81.258800000000008
10
168.66499999999999
20
78.348399999999998
10
171.57499999999999
20
64.653600000000012
10
185.26900000000001
20
67.565100000000001
0
LWPOLYLINE
5
132
100
AcDbEntity
8
0
100
AcDbPolyline
90
4
70
1
43
0.0
10
49.956500000000005
20
59.228200000000008
10
49.956500000000005
20
73.227500000000006
10
35.9572
20
73.227500000000006
10
35.9572
20
59.228200000000008
0
LWPOLYLINE
5
133
100
AcDbEntity
8
0
100
AcDbPolyline
90
4
70
1
43
0.0
10
209.61200000000002
20
67.576300000000003
10
195.91700000000003
20
64.665899999999993
10
198.827
20
50.972200000000001
10
212.52099999999999
20
53.881200000000007
0
LWPOLYLINE
5
134
100
AcDbEntity
8
0
100
AcDbPolyline
90
4
70
1
43
0.0
10
214.55100000000002
20
68.626199999999997
10
217.46099999999998
20
54.931400000000004
10
231.155
20
57.84320000000001
10
228.24400000000003
20
71.536600000000007
0
LWPOLYLINE
5
135
100
AcDbEntity
8
0
100
AcDbPolyline
90
4
70
1
43
0.0
10
111.044
20
47.319099999999999
10
124.73700000000001
20
44.407300000000006
10
127.649
20
58.102100000000007
10
113.95400000000001
20
61.012599999999999
0
LWPOLYLINE
5
136
100
AcDbEntity
8
0
100
AcDbPolyline
90
4
70
1
43
0.0
10
158.649
20
56.743600000000001
10
161.56000000000003
20
43.049799999999998
10
175.255
20
45.9602
10
172.34300000000002
20
59.655400000000007
0
LWPOLYLINE
5
137
100
AcDbEntity
8
0
100
AcDbPolyline
90
4
70
1
43
0.0
10
138.82599999999999
20
54.177500000000009
10
138.82599999999999
20
40.178199999999997
10
152.82599999999999
20
40.178199999999997
10
152.82599999999999
20
54.177500000000009
0
LWPOLYLINE
5
138
100
AcDbEntity
8
0
100
AcDbPolyline
90
4
70
1
43
0.0
10
76.687899999999999
20
68.933499999999995
10
73.776100000000014
20
55.240100000000005
10
87.4709
20
52.328200000000002
10
90.38130000000001
20
66.023099999999999
0
LWPOLYLINE
5
139
100
AcDbEntity
8
0
100
AcDbPolyline
90
4
70
1
43
0.0
10
106.10500000000002
20
48.369
10
109.01400000000001
20
62.062800000000003
10
95.320200000000014
20
64.973200000000006
10
92.409800000000004
20
51.27940000000001
0
LWPOLYLINE
5
140
100
AcDbEntity
8
0
100
AcDbPolyline
90
4
70
1
43
0.0
10
316.94499999999999
20
40.178199999999997
10
330.94400000000002
20
40.178199999999997
10
330.94400000000002
20
54.177500000000009
10
316.94499999999999
20
54.177500000000009
0
LWPOLYLINE
5
141
100
AcDbEntity
8
0
100
AcDbPolyline
90
36
70
1
43
0.0
10
34.4193
20
49.477100000000007
10
34.4193
20
52.707100000000004
10
27.66960000000001
20
52.707100000000004
10
27.66960000000001
20
49.477100000000007
10
26.144099999999995
20
49.477100000000007
10
26.144099999999995
20
54.177500000000009
10
12.144700000000004
20
54.177500000000009
10
12.144700000000004
20
49.477100000000007
10
10.619200000000006
20
49.477100000000007
10
10.619200000000006
20
52.707100000000004
10
3.8695500000000038
20
52.707100000000004
10
3.8695500000000038
20
49.477100000000007
10
3.0440899999999971
20
49.477100000000007
10
3.0440899999999971
20
46.678100000000001
10
3.8695500000000038
20
46.678100000000001
10
3.8695500000000038
20
40.408200000000001
10
5.5948399999999943
20
40.408200000000001
10
5.5948399999999943
20
39.208100000000002
10
8.8938500000000076
20
39.208100000000002
10
8.8938500000000076
20
40.408200000000001
10
10.619200000000006
20
40.408200000000001
10
10.619200000000006
20
44.877200000000002
10
12.144700000000004
20
44.877200000000002
10
12.144700000000004
20
40.178199999999997
10
26.144099999999995
20
40.178199999999997
10
26.144099999999995
20
44.877200000000002
10
27.66960000000001
20
44.877200000000002
10
27.66960000000001
20
40.408200000000001
10
29.394899999999993
20
40.408200000000001
10
29.394899999999993
20
39.208100000000002
10
32.69400000000001
20
39.208100000000002
10
32.69400000000001
20
40.408200000000001
10
34.4193
20
40.408200000000001
10
34.4193
20
46.678100000000001
10
35.244700000000009
20
46.678100000000001
10
35.244700000000009
20
49.477100000000007
0
LWPOLYLINE
5
142
100
AcDbEntity
8
0
100
AcDbPolyline
90
4
70
1
43
0.0
10
77.104200000000006
20
49.369500000000002
10
63.409000000000006
20
52.281300000000002
10
60.49860000000001
20
38.586500000000008
10
74.192300000000003
20
35.676100000000005
0
LWPOLYLINE
5
143
100
AcDbEntity
8
0
100
AcDbPolyline
90
4
70
1
43
0.0
10
131.96100000000001
20
101.298
10
134.87299999999999
20
114.99299999999999
10
121.179
20
117.904
10
118.26700000000002
20
104.20999999999999
0
LWPOLYLINE
5
144
100
AcDbEntity
8
0
100
AcDbPolyline
90
4
70
1
43
0.0
10
250.94999999999999
20
120.47600000000001
10
248.04000000000002
20
134.17099999999999
10
234.345
20
131.26100000000002
10
237.25700000000003
20
117.56700000000002
0
LWPOLYLINE
5
145
100
AcDbEntity
8
0
100
AcDbPolyline
90
4
70
1
43
0.0
10
76.060699999999997
20
113.18200000000002
10
78.971100000000007
20
126.87600000000002
10
65.277600000000007
20
129.786
10
62.3658
20
116.09100000000001
0
CIRCLE
5
146
100
AcDbEntity
8
0
100
AcDbCircle
10
308.12230565423937
20
86.170758435242689
30
0
40
1.9999999999999929
210
0
220
0
230
1
0
CIRCLE
5
147
100
AcDbEntity
8
0
100
AcDbCircle
10
235.09596157441257
20
115.1512918338523
30
0
40
1.9999999999999929
210
0
220
0
230
1
0
CIRCLE
5
148
100
AcDbEntity
8
0
100
AcDbCircle
10
252.2312769569227
20
74.900551002450158
30
0
40
1.9999999999999929
210
0
220
0
230
1
0
CIRCLE
5
149
100
AcDbEntity
8
0
100
AcDbCircle
10
165.38018597752568
20
79.708051484136945
30
0
40
1.9999999999999929
210
0
220
0
230
1
0
CIRCLE
5
150
100
AcDbEntity
8
0
100
AcDbCircle
10
37.624416926156634
20
118.71176200094153
30
0
40
2.0000000000000018
210
0
220
0
230
1
0
CIRCLE
5
151
100
AcDbEntity
8
0
100
AcDbCircle
10
23.479156576835187
20
27.860089838633293
30
0
40
2.0000000000000018
210
0
220
0
230
1
0
CIRCLE
5
152
100
AcDbEntity
8
0
100
AcDbCircle
10
80.060197974119916
20
27.515083488648617
30
0
40
1.9999999999999929
210
0
220
0
230
1
0
CIRCLE
5
153
100
AcDbEntity
8
0
100
AcDbCircle
10
93.068010455319552
20
67.636924534085153
30
0
40
1.9999999999999929
210
0
220
0
230
1
0
CIRCLE
5
154
100
AcDbEntity
8
0
100
AcDbCircle
10
29.76131541073314
20
71.422493774790809
30
0
40
2.0000000000000018
210
0
220
0
230
1
0
CIRCLE
5
155
100
AcDbEntity
8
0
100
AcDbCircle
10
133.52459966238823
20
98.798402849887481
30
0
40
1.9999999999999929
210
0
220
0
230
1
0
CIRCLE
5
156
100
AcDbEntity
8
0
100
AcDbCircle
10
183.01080445776901
20
44.705168226035532
30
0
40
1.9999999999999929
210
0
220
0
230
1
0
CIRCLE
5
157
100
AcDbEntity
8
0
100
AcDbCircle
10
208.27597549213252
20
18.29692118708321
30
0
40
1.9999999999999929
210
0
220
0
230
1
0
CIRCLE
5
158
100
AcDbEntity
8
0
100
AcDbCircle
10
295.93208128815695
20
124.23645905008215
30
0
40
1.9999999999999929
210
0
220
0
230
1
0
CIRCLE
5
159
100
AcDbEntity
8
0
100
AcDbCircle
10
290.98699027172893
20
47.530047237097193
30
0
40
1.9999999999999929
210
0
220
0
230
1
0
LWPOLYLINE
5
160
100
AcDbEntity
8
0
100
AcDbPolyline
90
4
70
1
43
0.0
10
105.40600000000001
20
67.9923
10
108.31800000000001
20
81.687500000000014
10
94.623100000000008
20
84.59650000000002
10
91.712699999999998
20
70.90270000000001
0
LWPOLYLINE
5
161
100
AcDbEntity
8
0
100
AcDbPolyline
90
4
70
1
43
0.0
10
9.7620299999999993
20
59.228200000000008
10
23.762900000000009
20
59.228200000000008
10
23.762900000000009
20
73.227500000000006
10
9.7620299999999993
20
73.227500000000006
0
LWPOLYLINE
5
162
100
AcDbEntity
8
0
100
AcDbPolyline
90
4
70
1
43
0.0
10
255.03200000000004
20
73.227500000000006
10
255.03200000000004
20
59.228200000000008
10
269.03199999999998
20
59.228200000000008
10
269.03199999999998
20
73.227500000000006
0
LWPOLYLINE
5
163
100
AcDbEntity
8
0
100
AcDbPolyline
90
4
70
1
43
0.0
10
57.426900000000003
20
117.14200000000002
10
60.335900000000002
20
130.83500000000001
10
46.643900000000002
20
133.74700000000001
10
43.732100000000003
20
120.053
0
LWPOLYLINE
5
164
100
AcDbEntity
8
0
100
AcDbPolyline
90
4
70
1
43
0.0
10
215.71300000000002
20
127.301
10
218.62300000000002
20
113.60500000000002
10
232.31799999999998
20
116.51700000000002
10
229.40600000000001
20
130.21100000000001
0
LWPOLYLINE
5
165
100
AcDbEntity
8
0
100
AcDbPolyline
90
4
70
1
43
0.0
10
24.239700000000006
20
111.32700000000001
10
10.238800000000001
20
111.32700000000001
10
10.238800000000001
20
97.32820000000001
10
24.239700000000006
20
97.32820000000001
0
LWPOLYLINE
5
166
100
AcDbEntity
8
0
100
AcDbPolyline
90
4
70
1
43
0.0
10
18.794345970496877
20
130.3806687807147
10
18.794345970496877
20
116.38166878071468
10
32.793845970496882
20
116.38166878071468
10
32.793845970496882
20
130.3806687807147
0
LWPOLYLINE
5
167
100
AcDbEntity
8
0
100
AcDbPolyline
90
4
70
1
43
0.0
10
192.13900000000001
20
122.28900000000002
10
178.44499999999999
20
119.37799999999999
10
181.35500000000002
20
105.68300000000001
10
195.04900000000004
20
108.595
0
LWPOLYLINE
5
168
100
AcDbEntity
8
0
100
AcDbPolyline
90
4
70
1
43
0.0
10
271.88999999999999
20
130.37700000000001
10
257.88900000000001
20
130.37700000000001
10
257.88900000000001
20
116.37799999999999
10
271.88999999999999
20
116.37799999999999
0
LWPOLYLINE
5
169
100
AcDbEntity
8
0
100
AcDbPolyline
90
4
70
1
43
0.0
10
276.93900000000002
20
116.37799999999999
10
290.94
20
116.37799999999999
10
290.94
20
130.37700000000001
10
276.93900000000002
20
130.37700000000001
0
LWPOLYLINE
5
170
100
AcDbEntity
8
0
100
AcDbPolyline
90
4
70
1
43
0.0
10
223.16900000000004
20
50.983400000000003
10
226.08100000000002
20
37.288300000000007
10
239.77500000000003
20
40.198700000000002
10
236.86400000000003
20
53.893900000000002
0
LWPOLYLINE
5
171
100
AcDbEntity
8
0
100
AcDbPolyline
90
4
70
1
43
0.0
10
170.179
20
25.406899999999997
10
183.87299999999999
20
28.317300000000003
10
180.96299999999999
20
42.010899999999999
10
167.26900000000001
20
39.100499999999997
0
LWPOLYLINE
5
172
100
AcDbEntity
8
0
100
AcDbPolyline
90
4
70
1
43
0.0
10
100.67700000000002
20
44.358999999999995
10
97.766400000000004
20
30.664100000000005
10
111.46000000000001
20
27.755100000000006
10
114.37
20
41.448600000000006
0
LWPOLYLINE
5
173
100
AcDbEntity
8
0
100
AcDbPolyline
90
4
70
1
43
0.0
10
289.322
20
92.277500000000003
10
289.322
20
78.278199999999998
10
303.322
20
78.278199999999998
10
303.322
20
92.277500000000003
0
LWPOLYLINE
5
174
100
AcDbEntity
8
0
100
AcDbPolyline
90
4
70
1
43
0.0
10
176.93200000000002
20
85.267400000000009
10
190.625
20
88.179300000000012
10
187.715
20
101.873
10
174.02000000000001
20
98.961200000000019
0
LWPOLYLINE
5
175
100
AcDbEntity
8
0
100
AcDbPolyline
90
4
70
1
43
0.0
10
35.004899999999999
20
78.278199999999998
10
49.004399999999997
20
78.278199999999998
10
49.004399999999997
20
92.277500000000003
10
35.004899999999999
20
92.277500000000003
0
LWPOLYLINE
5
176
100
AcDbEntity
8
0
100
AcDbPolyline
90
4
70
1
43
0.0
10
187.29700000000003
20
82.308700000000016
10
190.20800000000003
20
68.615300000000005
10
203.90299999999999
20
71.525700000000001
10
200.99200000000002
20
85.219099999999997
0
LWPOLYLINE
5
177
100
AcDbEntity
8
0
100
AcDbPolyline
90
4
70
1
43
0.0
10
169.08100000000002
20
97.912400000000019
10
155.386
20
95.00200000000001
10
158.298
20
81.308199999999999
10
171.99200000000002
20
84.217600000000004
0
LWPOLYLINE
5
178
100
AcDbEntity
8
0
100
AcDbPolyline
90
4
70
1
43
0.0
10
71.048699999999997
20
89.608400000000017
10
57.355300000000007
20
92.518799999999999
10
54.444900000000004
20
78.825000000000003
10
68.138300000000001
20
75.913499999999999
0
LWPOLYLINE
5
179
100
AcDbEntity
8
0
100
AcDbPolyline
90
4
70
1
43
0.0
10
118.68400000000001
20
84.645899999999997
10
121.59399999999999
20
98.339600000000019
10
107.90000000000001
20
101.25100000000002
10
104.99000000000001
20
87.556299999999993
0
LWPOLYLINE
5
180
100
AcDbEntity
8
0
100
AcDbPolyline
90
36
70
1
43
0.0
10
299.98800000000006
20
59.228200000000008
10
299.98800000000006
20
63.927200000000006
10
301.51200000000006
20
63.927200000000006
10
301.51200000000006
20
59.458200000000005
10
303.23700000000002
20
59.458200000000005
10
303.23700000000002
20
58.258100000000006
10
306.53800000000001
20
58.258100000000006
10
306.53800000000001
20
59.458200000000005
10
308.26299999999998
20
59.458200000000005
10
308.26299999999998
20
65.728100000000012
10
309.08699999999999
20
65.728100000000012
10
309.08699999999999
20
68.527100000000004
10
308.26299999999998
20
68.527100000000004
10
308.26299999999998
20
71.757099999999994
10
301.51200000000006
20
71.757099999999994
10
301.51200000000006
20
68.527100000000004
10
299.98800000000006
20
68.527100000000004
10
299.98800000000006
20
73.227500000000006
10
285.98700000000002
20
73.227500000000006
10
285.98700000000002
20
68.527100000000004
10
284.46299999999997
20
68.527100000000004
10
284.46299999999997
20
71.757099999999994
10
277.71199999999999
20
71.757099999999994
10
277.71199999999999
20
68.527100000000004
10
276.88800000000003
20
68.527100000000004
10
276.88800000000003
20
65.728100000000012
10
277.71199999999999
20
65.728100000000012
10
277.71199999999999
20
59.458200000000005
10
279.43700000000001
20
59.458200000000005
10
279.43700000000001
20
58.258100000000006
10
282.738
20
58.258100000000006
10
282.738
20
59.458200000000005
10
284.46299999999997
20
59.458200000000005
10
284.46299999999997
20
63.927200000000006
10
285.98700000000002
20
63.927200000000006
10
285.98700000000002
20
59.228200000000008
0
LWPOLYLINE
5
181
100
AcDbEntity
8
0
100
AcDbPolyline
90
4
70
1
43
0.0
10
75.98899999999999
20
88.558199999999999
10
73.078599999999994
20
74.863299999999995
10
86.772400000000005
20
71.9529
10
89.684200000000004
20
85.646299999999997
0
LWPOLYLINE
5
182
100
AcDbEntity
8
0
100
AcDbPolyline
90
4
70
1
43
0.0
10
102.95999999999999
20
102.301
10
89.266500000000008
20
105.212
10
86.356099999999998
20
91.516900000000007
10
100.051
20
88.606499999999997
0
LWPOLYLINE
5
183
100
AcDbEntity
8
0
100
AcDbPolyline
90
4
70
1
43
0.0
10
260.45900000000006
20
78.278199999999998
10
260.45900000000006
20
92.277500000000003
10
246.459
20
92.277500000000003
10
246.459
20
78.278199999999998
0
LWPOLYLINE
5
184
100
AcDbEntity
8
0
100
AcDbPolyline
90
4
70
1
43
0.0
10
240.745
20
35.127600000000001
10
240.745
20
21.128099999999996
10
254.74400000000003
20
21.128099999999996
10
254.74400000000003
20
35.127600000000001
0
LWPOLYLINE
5
185
100
AcDbEntity
8
0
100
AcDbPolyline
90
4
70
1
43
0.0
10
135.44999999999999
20
3.17912999999999
10
138.36099999999999
20
16.874099999999999
10
124.66700000000002
20
19.784500000000005
10
121.755
20
6.0909200000000041
0
LWPOLYLINE
5
186
100
AcDbEntity
8
0
100
AcDbPolyline
90
36
70
1
43
0.0
10
197.95400000000001
20
12.0702
10
198.202
20
10.896100000000004
10
201.43000000000001
20
11.582399999999993
10
201.18099999999998
20
12.755100000000006
10
202.86799999999999
20
13.113399999999995
10
201.56400000000005
20
19.247099999999993
10
202.37200000000001
20
19.41930000000001
10
201.78900000000002
20
22.157499999999999
10
200.983
20
21.985200000000003
10
200.31200000000001
20
25.145
10
193.70800000000003
20
23.742199999999993
10
194.38099999999997
20
20.582399999999996
10
192.88800000000003
20
20.265400000000007
10
191.911
20
24.862599999999997
10
178.21799999999999
20
21.952200000000008
10
179.19499999999999
20
17.355
10
177.702
20
17.038100000000007
10
177.03100000000001
20
20.196500000000004
10
170.429
20
18.795000000000002
10
171.09999999999999
20
15.633800000000004
10
170.29400000000004
20
15.463000000000005
10
170.87500000000003
20
12.723399999999998
10
171.68299999999999
20
12.895699999999994
10
172.98500000000001
20
6.76342
10
174.673
20
7.1203299999999992
10
174.923
20
5.9462500000000063
10
178.15000000000001
20
6.6338799999999942
10
177.90200000000002
20
7.8065800000000074
10
179.58900000000003
20
8.1662399999999913
10
178.66
20
12.537400000000005
10
180.15100000000001
20
12.854299999999999
10
181.12799999999999
20
8.2572200000000073
10
194.82299999999998
20
11.168999999999993
10
193.846
20
15.766100000000005
10
195.33700000000005
20
16.083100000000012
10
196.26599999999999
20
11.710600000000007
0
LWPOLYLINE
5
187
100
AcDbEntity
8
0
100
AcDbPolyline
90
4
70
1
43
0.0
10
273.79400000000004
20
21.128099999999996
10
273.79400000000004
20
35.127600000000001
10
259.79500000000002
20
35.127600000000001
10
259.79500000000002
20
21.128099999999996
0
LWPOLYLINE
5
188
100
AcDbEntity
8
0
100
AcDbPolyline
90
4
70
1
43
0.0
10
72.562200000000004
20
16.546099999999999
10
75.4726
20
30.241100000000003
10
61.7774
20
33.151499999999999
10
58.867000000000004
20
19.457900000000006
0
LWPOLYLINE
5
189
100
AcDbEntity
8
0
100
AcDbPolyline
90
4
70
1
43
0.0
10
316.94499999999999
20
35.127600000000001
10
316.94499999999999
20
21.128099999999996
10
330.94400000000002
20
21.128099999999996
10
330.94400000000002
20
35.127600000000001
0
LWPOLYLINE
5
190
100
AcDbEntity
8
0
100
AcDbPolyline
90
4
70
1
43
0.0
10
278.84500000000003
20
21.128099999999996
10
292.84399999999999
20
21.128099999999996
10
292.84399999999999
20
35.127600000000001
10
278.84500000000003
20
35.127600000000001
0
LWPOLYLINE
5
191
100
AcDbEntity
8
0
100
AcDbPolyline
90
4
70
1
43
0.0
10
28.811999999999998
20
35.127600000000001
10
28.811999999999998
20
21.128099999999996
10
42.81280000000001
20
21.128099999999996
10
42.81280000000001
20
35.127600000000001
0
LWPOLYLINE
5
192
100
AcDbEntity
8
0
100
AcDbPolyline
90
4
70
1
43
0.0
10
133.00399999999999
20
37.488299999999995
10
119.31100000000001
20
40.398699999999998
10
116.40000000000001
20
26.705000000000005
10
130.09399999999999
20
23.793199999999999
0
LWPOLYLINE
5
193
100
AcDbEntity
8
0
100
AcDbPolyline
90
4
70
1
43
0.0
10
216.06700000000004
20
15.68340000000001
10
229.75999999999999
20
18.595199999999998
10
226.85000000000002
20
32.288800000000002
10
213.155
20
29.378399999999996
0
LWPOLYLINE
5
194
100
AcDbEntity
8
0
100
AcDbPolyline
90
4
70
1
43
0.0
10
297.89499999999998
20
21.128099999999996
10
311.89400000000001
20
21.128099999999996
10
311.89400000000001
20
35.127600000000001
10
297.89499999999998
20
35.127600000000001
0
LWPOLYLINE
5
195
100
AcDbEntity
8
0
100
AcDbPolyline
90
4
70
1
43
0.0
10
156.636
20
21.128099999999996
10
156.636
20
35.127600000000001
10
142.637
20
35.127600000000001
10
142.637
20
21.128099999999996
0
LWPOLYLINE
5
196
100
AcDbEntity
8
0
100
AcDbPolyline
90
4
70
1
43
0.0
10
19.000400000000006
20
35.127600000000001
10
5.000909999999994
20
35.127600000000001
10
5.000909999999994
20
21.128099999999996
10
19.000400000000006
20
21.128099999999996
0
LWPOLYLINE
5
197
100
AcDbEntity
8
0
100
AcDbPolyline
90
36
70
1
43
0.0
10
91.409300000000002
20
27.8446
10
88.182100000000005
20
28.532299999999999
10
87.932699999999997
20
27.358200000000004
10
86.244600000000005
20
27.7151
10
84.940799999999996
20
21.582799999999995
10
84.134700000000009
20
21.755100000000009
10
83.551900000000003
20
19.015500000000003
10
84.359400000000008
20
18.844700000000003
10
83.687000000000026
20
15.684799999999992
10
90.290300000000002
20
14.282000000000004
10
90.961600000000004
20
17.440499999999997
10
92.453900000000004
20
17.123500000000007
10
91.477000000000004
20
12.526399999999995
10
105.17000000000002
20
9.6159500000000087
10
106.14800000000001
20
14.213100000000001
10
107.64000000000001
20
13.896099999999993
10
106.96799999999999
20
10.736299999999996
10
113.57100000000001
20
9.3320699999999945
10
114.242
20
12.493300000000005
10
115.048
20
12.321000000000009
10
115.63000000000001
20
15.059199999999997
10
114.824
20
15.231499999999993
10
116.12700000000002
20
21.365099999999995
10
114.44000000000001
20
21.723400000000002
10
114.69000000000001
20
22.896099999999997
10
111.46100000000001
20
23.582400000000003
10
111.21200000000002
20
22.408300000000008
10
109.52500000000001
20
22.767999999999997
10
108.595
20
18.395399999999995
10
107.104
20
18.712400000000002
10
108.08100000000002
20
23.309499999999996
10
94.38600000000001
20
26.221300000000003
10
93.408900000000003
20
21.624199999999991
10
91.917999999999992
20
21.941100000000002
10
92.847899999999996
20
26.312200000000008
10
91.159899999999993
20
26.671899999999997
0
LWPOLYLINE
5
198
100
AcDbEntity
8
0
100
AcDbPolyline
90
4
70
1
43
0.0
10
221.142
20
36.238399999999999
10
218.23000000000002
20
49.933200000000006
10
204.53700000000001
20
47.0214
10
207.447
20
33.3279
0
LWPOLYLINE
5
199
100
AcDbEntity
8
0
100
AcDbPolyline
90
4
70
1
43
0.0
10
92.826099999999997
20
31.714200000000005
10
95.73790000000001
20
45.409199999999998
10
82.043099999999995
20
48.319600000000008
10
79.132599999999996
20
34.625900000000001
0
LWPOLYLINE
5
200
100
AcDbEntity
8
0
100
AcDbPolyline
90
4
70
1
43
0.0
10
202.50700000000001
20
32.277799999999999
10
199.59599999999998
20
45.971499999999999
10
185.90299999999999
20
43.061100000000003
10
188.81299999999999
20
29.367400000000004
0
LWPOLYLINE
5
201
100
AcDbEntity
8
0
100
AcDbPolyline
90
25
70
1
43
0.0
10
250.08973853359544
20
131.90300000000002
10
321.05099999999999
20
131.90300000000002
10
321.05099999999999
20
112.85300000000001
10
324.851
20
112.85300000000001
10
324.851
20
93.803066666666695
10
328.65999999999997
20
93.803066666666695
10
328.65999999999997
20
74.752200000000002
10
332.47000000000003
20
74.752200000000002
10
332.47000000000003
20
19.6021
10
246.51714250963698
20
19.6021
10
159.88375709571807
20
1.183279000000006
10
137.49938803742893
20
1.183279000000006
10
50.849258593439615
20
19.6021
10
1.095084600000007
20
19.6021
10
1.095084600000007
20
74.752200000000002
10
4.895084599999997
20
74.752200000000002
10
4.895084599999997
20
93.8035
10
8.6950846000000048
20
93.8035
10
8.6950846000000048
20
112.85300000000001
10
12.495084600000013
20
112.85300000000001
10
12.495084600000013
20
131.90666878071471
10
44.692468265396521
20
131.90666878071471
10
45.469774081355737
20
135.5622858710868
10
147.18038022723729
20
113.93522708800079
10
249.20983442219756
20
135.97615578503326
0
ENDSEC
0
SECTION
2
OBJECTS
0
DICTIONARY
5
C
100
AcDbDictionary
3
ACAD_GROUP
350
D
3
ACAD_MLINESTYLE
350
17
0
DICTIONARY
5
D
100
AcDbDictionary
0
DICTIONARY
5
1A
330
C
100
AcDbDictionary
0
DICTIONARY
5
17
100
AcDbDictionary
0
ENDSEC
0
EOF
