  0
SECTION
  2
HEADER
  9
$ACADVER
  1
AC1009
  9
$EXTMIN
 10
0.0
 20
0.0
 30
0.0
  9
$EXTMAX
 10
1000.0
 20
1000.0
 30
0.0
  9
$FILLMODE
 70
 0
  9
$SPLFRAME
 70
 1
  0
ENDSEC
  0
SECTION
  2
TABLES
  0
TABLE
  2
LAYER
 70
1
  0
LAYER
  2
0
 70
     0
 62
     7
  6
CONTINUOUS
  0
ENDTAB
  0
ENDSEC
  0
SECTION
  2
ENTITIES
  0
LINE
  8
0
 62
     0
 10
0.0950846
 20
142.427
 30
0.0
 11
333.47
 21
142.427
 31
0.0
  0
LINE
  8
0
 62
     0
 10
333.47
 20
142.427
 30
0.0
 11
333.47
 21
0.183279
 31
0.0
  0
LINE
  8
0
 62
     0
 10
333.47
 20
0.183279
 30
0.0
 11
0.0950846
 21
0.183279
 31
0.0
  0
LINE
  8
0
 62
     0
 10
0.0950846
 20
0.183279
 30
0.0
 11
0.0950846
 21
142.427
 31
0.0
  0
LINE
  8
0
 62
     0
 10
121.755
 20
6.09092
 30
0.0
 11
135.45
 21
3.17913
 31
0.0
  0
LINE
  8
0
 62
     0
 10
135.45
 20
3.17913
 30
0.0
 11
138.361
 21
16.8741
 31
0.0
  0
LINE
  8
0
 62
     0
 10
138.361
 20
16.8741
 30
0.0
 11
124.667
 21
19.7845
 31
0.0
  0
LINE
  8
0
 62
     0
 10
124.667
 20
19.7845
 30
0.0
 11
121.755
 21
6.09092
 31
0.0
  0
LINE
  8
0
 62
     0
 10
193.708
 20
23.7422
 30
0.0
 11
194.381
 21
20.5824
 31
0.0
  0
LINE
  8
0
 62
     0
 10
194.381
 20
20.5824
 30
0.0
 11
192.888
 21
20.2654
 31
0.0
  0
LINE
  8
0
 62
     0
 10
192.888
 20
20.2654
 30
0.0
 11
191.911
 21
24.8626
 31
0.0
  0
LINE
  8
0
 62
     0
 10
191.911
 20
24.8626
 30
0.0
 11
178.218
 21
21.9522
 31
0.0
  0
LINE
  8
0
 62
     0
 10
178.218
 20
21.9522
 30
0.0
 11
179.195
 21
17.355
 31
0.0
  0
LINE
  8
0
 62
     0
 10
179.195
 20
17.355
 30
0.0
 11
177.702
 21
17.0381
 31
0.0
  0
LINE
  8
0
 62
     0
 10
177.702
 20
17.0381
 30
0.0
 11
177.031
 21
20.1965
 31
0.0
  0
LINE
  8
0
 62
     0
 10
177.031
 20
20.1965
 30
0.0
 11
170.429
 21
18.795
 31
0.0
  0
LINE
  8
0
 62
     0
 10
170.429
 20
18.795
 30
0.0
 11
171.1
 21
15.6338
 31
0.0
  0
LINE
  8
0
 62
     0
 10
171.1
 20
15.6338
 30
0.0
 11
170.294
 21
15.463
 31
0.0
  0
LINE
  8
0
 62
     0
 10
170.294
 20
15.463
 30
0.0
 11
170.875
 21
12.7234
 31
0.0
  0
LINE
  8
0
 62
     0
 10
170.875
 20
12.7234
 30
0.0
 11
171.683
 21
12.8957
 31
0.0
  0
LINE
  8
0
 62
     0
 10
171.683
 20
12.8957
 30
0.0
 11
172.985
 21
6.76342
 31
0.0
  0
LINE
  8
0
 62
     0
 10
172.985
 20
6.76342
 30
0.0
 11
174.673
 21
7.12033
 31
0.0
  0
LINE
  8
0
 62
     0
 10
174.673
 20
7.12033
 30
0.0
 11
174.923
 21
5.94625
 31
0.0
  0
LINE
  8
0
 62
     0
 10
174.923
 20
5.94625
 30
0.0
 11
178.15
 21
6.63388
 31
0.0
  0
LINE
  8
0
 62
     0
 10
178.15
 20
6.63388
 30
0.0
 11
177.902
 21
7.80658
 31
0.0
  0
LINE
  8
0
 62
     0
 10
177.902
 20
7.80658
 30
0.0
 11
179.589
 21
8.16624
 31
0.0
  0
LINE
  8
0
 62
     0
 10
179.589
 20
8.16624
 30
0.0
 11
178.66
 21
12.5374
 31
0.0
  0
LINE
  8
0
 62
     0
 10
178.66
 20
12.5374
 30
0.0
 11
180.151
 21
12.8543
 31
0.0
  0
LINE
  8
0
 62
     0
 10
180.151
 20
12.8543
 30
0.0
 11
181.128
 21
8.25722
 31
0.0
  0
LINE
  8
0
 62
     0
 10
181.128
 20
8.25722
 30
0.0
 11
194.823
 21
11.169
 31
0.0
  0
LINE
  8
0
 62
     0
 10
194.823
 20
11.169
 30
0.0
 11
193.846
 21
15.7661
 31
0.0
  0
LINE
  8
0
 62
     0
 10
193.846
 20
15.7661
 30
0.0
 11
195.337
 21
16.0831
 31
0.0
  0
LINE
  8
0
 62
     0
 10
195.337
 20
16.0831
 30
0.0
 11
196.266
 21
11.7106
 31
0.0
  0
LINE
  8
0
 62
     0
 10
196.266
 20
11.7106
 30
0.0
 11
197.954
 21
12.0702
 31
0.0
  0
LINE
  8
0
 62
     0
 10
197.954
 20
12.0702
 30
0.0
 11
198.202
 21
10.8961
 31
0.0
  0
LINE
  8
0
 62
     0
 10
198.202
 20
10.8961
 30
0.0
 11
201.43
 21
11.5824
 31
0.0
  0
LINE
  8
0
 62
     0
 10
201.43
 20
11.5824
 30
0.0
 11
201.181
 21
12.7551
 31
0.0
  0
LINE
  8
0
 62
     0
 10
201.181
 20
12.7551
 30
0.0
 11
202.868
 21
13.1134
 31
0.0
  0
LINE
  8
0
 62
     0
 10
202.868
 20
13.1134
 30
0.0
 11
201.564
 21
19.2471
 31
0.0
  0
LINE
  8
0
 62
     0
 10
201.564
 20
19.2471
 30
0.0
 11
202.372
 21
19.4193
 31
0.0
  0
LINE
  8
0
 62
     0
 10
202.372
 20
19.4193
 30
0.0
 11
201.789
 21
22.1575
 31
0.0
  0
LINE
  8
0
 62
     0
 10
201.789
 20
22.1575
 30
0.0
 11
200.983
 21
21.9852
 31
0.0
  0
LINE
  8
0
 62
     0
 10
200.983
 20
21.9852
 30
0.0
 11
200.312
 21
25.145
 31
0.0
  0
LINE
  8
0
 62
     0
 10
200.312
 20
25.145
 30
0.0
 11
193.708
 21
23.7422
 31
0.0
  0
LINE
  8
0
 62
     0
 10
87.9327
 20
27.3582
 30
0.0
 11
86.2446
 21
27.7151
 31
0.0
  0
LINE
  8
0
 62
     0
 10
86.2446
 20
27.7151
 30
0.0
 11
84.9408
 21
21.5828
 31
0.0
  0
LINE
  8
0
 62
     0
 10
84.9408
 20
21.5828
 30
0.0
 11
84.1347
 21
21.7551
 31
0.0
  0
LINE
  8
0
 62
     0
 10
84.1347
 20
21.7551
 30
0.0
 11
83.5519
 21
19.0155
 31
0.0
  0
LINE
  8
0
 62
     0
 10
83.5519
 20
19.0155
 30
0.0
 11
84.3594
 21
18.8447
 31
0.0
  0
LINE
  8
0
 62
     0
 10
84.3594
 20
18.8447
 30
0.0
 11
83.687
 21
15.6848
 31
0.0
  0
LINE
  8
0
 62
     0
 10
83.687
 20
15.6848
 30
0.0
 11
90.2903
 21
14.282
 31
0.0
  0
LINE
  8
0
 62
     0
 10
90.2903
 20
14.282
 30
0.0
 11
90.9616
 21
17.4405
 31
0.0
  0
LINE
  8
0
 62
     0
 10
90.9616
 20
17.4405
 30
0.0
 11
92.4539
 21
17.1235
 31
0.0
  0
LINE
  8
0
 62
     0
 10
92.4539
 20
17.1235
 30
0.0
 11
91.477
 21
12.5264
 31
0.0
  0
LINE
  8
0
 62
     0
 10
91.477
 20
12.5264
 30
0.0
 11
105.17
 21
9.61595
 31
0.0
  0
LINE
  8
0
 62
     0
 10
105.17
 20
9.61595
 30
0.0
 11
106.148
 21
14.2131
 31
0.0
  0
LINE
  8
0
 62
     0
 10
106.148
 20
14.2131
 30
0.0
 11
107.64
 21
13.8961
 31
0.0
  0
LINE
  8
0
 62
     0
 10
107.64
 20
13.8961
 30
0.0
 11
106.968
 21
10.7363
 31
0.0
  0
LINE
  8
0
 62
     0
 10
106.968
 20
10.7363
 30
0.0
 11
113.571
 21
9.33207
 31
0.0
  0
LINE
  8
0
 62
     0
 10
113.571
 20
9.33207
 30
0.0
 11
114.242
 21
12.4933
 31
0.0
  0
LINE
  8
0
 62
     0
 10
114.242
 20
12.4933
 30
0.0
 11
115.048
 21
12.321
 31
0.0
  0
LINE
  8
0
 62
     0
 10
115.048
 20
12.321
 30
0.0
 11
115.63
 21
15.0592
 31
0.0
  0
LINE
  8
0
 62
     0
 10
115.63
 20
15.0592
 30
0.0
 11
114.824
 21
15.2315
 31
0.0
  0
LINE
  8
0
 62
     0
 10
114.824
 20
15.2315
 30
0.0
 11
116.127
 21
21.3651
 31
0.0
  0
LINE
  8
0
 62
     0
 10
116.127
 20
21.3651
 30
0.0
 11
114.44
 21
21.7234
 31
0.0
  0
LINE
  8
0
 62
     0
 10
114.44
 20
21.7234
 30
0.0
 11
114.69
 21
22.8961
 31
0.0
  0
LINE
  8
0
 62
     0
 10
114.69
 20
22.8961
 30
0.0
 11
111.461
 21
23.5824
 31
0.0
  0
LINE
  8
0
 62
     0
 10
111.461
 20
23.5824
 30
0.0
 11
111.212
 21
22.4083
 31
0.0
  0
LINE
  8
0
 62
     0
 10
111.212
 20
22.4083
 30
0.0
 11
109.525
 21
22.768
 31
0.0
  0
LINE
  8
0
 62
     0
 10
109.525
 20
22.768
 30
0.0
 11
108.595
 21
18.3954
 31
0.0
  0
LINE
  8
0
 62
     0
 10
108.595
 20
18.3954
 30
0.0
 11
107.104
 21
18.7124
 31
0.0
  0
LINE
  8
0
 62
     0
 10
107.104
 20
18.7124
 30
0.0
 11
108.081
 21
23.3095
 31
0.0
  0
LINE
  8
0
 62
     0
 10
108.081
 20
23.3095
 30
0.0
 11
94.386
 21
26.2213
 31
0.0
  0
LINE
  8
0
 62
     0
 10
94.386
 20
26.2213
 30
0.0
 11
93.4089
 21
21.6242
 31
0.0
  0
LINE
  8
0
 62
     0
 10
93.4089
 20
21.6242
 30
0.0
 11
91.918
 21
21.9411
 31
0.0
  0
LINE
  8
0
 62
     0
 10
91.918
 20
21.9411
 30
0.0
 11
92.8479
 21
26.3122
 31
0.0
  0
LINE
  8
0
 62
     0
 10
92.8479
 20
26.3122
 30
0.0
 11
91.1599
 21
26.6719
 31
0.0
  0
LINE
  8
0
 62
     0
 10
91.1599
 20
26.6719
 30
0.0
 11
91.4093
 21
27.8446
 31
0.0
  0
LINE
  8
0
 62
     0
 10
91.4093
 20
27.8446
 30
0.0
 11
88.1821
 21
28.5323
 31
0.0
  0
LINE
  8
0
 62
     0
 10
88.1821
 20
28.5323
 30
0.0
 11
87.9327
 21
27.3582
 31
0.0
  0
LINE
  8
0
 62
     0
 10
213.155
 20
29.3784
 30
0.0
 11
216.067
 21
15.6834
 31
0.0
  0
LINE
  8
0
 62
     0
 10
216.067
 20
15.6834
 30
0.0
 11
229.76
 21
18.5952
 31
0.0
  0
LINE
  8
0
 62
     0
 10
229.76
 20
18.5952
 30
0.0
 11
226.85
 21
32.2888
 31
0.0
  0
LINE
  8
0
 62
     0
 10
226.85
 20
32.2888
 30
0.0
 11
213.155
 21
29.3784
 31
0.0
  0
LINE
  8
0
 62
     0
 10
58.867
 20
19.4579
 30
0.0
 11
72.5622
 21
16.5461
 31
0.0
  0
LINE
  8
0
 62
     0
 10
72.5622
 20
16.5461
 30
0.0
 11
75.4726
 21
30.2411
 31
0.0
  0
LINE
  8
0
 62
     0
 10
75.4726
 20
30.2411
 30
0.0
 11
61.7774
 21
33.1515
 31
0.0
  0
LINE
  8
0
 62
     0
 10
61.7774
 20
33.1515
 30
0.0
 11
58.867
 21
19.4579
 31
0.0
  0
LINE
  8
0
 62
     0
 10
316.945
 20
35.1276
 30
0.0
 11
330.944
 21
35.1276
 31
0.0
  0
LINE
  8
0
 62
     0
 10
330.944
 20
35.1276
 30
0.0
 11
330.944
 21
21.1281
 31
0.0
  0
LINE
  8
0
 62
     0
 10
330.944
 20
21.1281
 30
0.0
 11
316.945
 21
21.1281
 31
0.0
  0
LINE
  8
0
 62
     0
 10
316.945
 20
21.1281
 30
0.0
 11
316.945
 21
35.1276
 31
0.0
  0
LINE
  8
0
 62
     0
 10
297.895
 20
35.1276
 30
0.0
 11
311.894
 21
35.1276
 31
0.0
  0
LINE
  8
0
 62
     0
 10
311.894
 20
35.1276
 30
0.0
 11
311.894
 21
21.1281
 31
0.0
  0
LINE
  8
0
 62
     0
 10
311.894
 20
21.1281
 30
0.0
 11
297.895
 21
21.1281
 31
0.0
  0
LINE
  8
0
 62
     0
 10
297.895
 20
21.1281
 30
0.0
 11
297.895
 21
35.1276
 31
0.0
  0
LINE
  8
0
 62
     0
 10
278.845
 20
35.1276
 30
0.0
 11
292.844
 21
35.1276
 31
0.0
  0
LINE
  8
0
 62
     0
 10
292.844
 20
35.1276
 30
0.0
 11
292.844
 21
21.1281
 31
0.0
  0
LINE
  8
0
 62
     0
 10
292.844
 20
21.1281
 30
0.0
 11
278.845
 21
21.1281
 31
0.0
  0
LINE
  8
0
 62
     0
 10
278.845
 20
21.1281
 30
0.0
 11
278.845
 21
35.1276
 31
0.0
  0
LINE
  8
0
 62
     0
 10
259.795
 20
35.1276
 30
0.0
 11
273.794
 21
35.1276
 31
0.0
  0
LINE
  8
0
 62
     0
 10
273.794
 20
35.1276
 30
0.0
 11
273.794
 21
21.1281
 31
0.0
  0
LINE
  8
0
 62
     0
 10
273.794
 20
21.1281
 30
0.0
 11
259.795
 21
21.1281
 31
0.0
  0
LINE
  8
0
 62
     0
 10
259.795
 20
21.1281
 30
0.0
 11
259.795
 21
35.1276
 31
0.0
  0
LINE
  8
0
 62
     0
 10
240.745
 20
35.1276
 30
0.0
 11
254.744
 21
35.1276
 31
0.0
  0
LINE
  8
0
 62
     0
 10
254.744
 20
35.1276
 30
0.0
 11
254.744
 21
21.1281
 31
0.0
  0
LINE
  8
0
 62
     0
 10
254.744
 20
21.1281
 30
0.0
 11
240.745
 21
21.1281
 31
0.0
  0
LINE
  8
0
 62
     0
 10
240.745
 20
21.1281
 30
0.0
 11
240.745
 21
35.1276
 31
0.0
  0
LINE
  8
0
 62
     0
 10
142.637
 20
35.1276
 30
0.0
 11
156.636
 21
35.1276
 31
0.0
  0
LINE
  8
0
 62
     0
 10
156.636
 20
35.1276
 30
0.0
 11
156.636
 21
21.1281
 31
0.0
  0
LINE
  8
0
 62
     0
 10
156.636
 20
21.1281
 30
0.0
 11
142.637
 21
21.1281
 31
0.0
  0
LINE
  8
0
 62
     0
 10
142.637
 20
21.1281
 30
0.0
 11
142.637
 21
35.1276
 31
0.0
  0
LINE
  8
0
 62
     0
 10
28.812
 20
35.1276
 30
0.0
 11
42.8128
 21
35.1276
 31
0.0
  0
LINE
  8
0
 62
     0
 10
42.8128
 20
35.1276
 30
0.0
 11
42.8128
 21
21.1281
 31
0.0
  0
LINE
  8
0
 62
     0
 10
42.8128
 20
21.1281
 30
0.0
 11
28.812
 21
21.1281
 31
0.0
  0
LINE
  8
0
 62
     0
 10
28.812
 20
21.1281
 30
0.0
 11
28.812
 21
35.1276
 31
0.0
  0
LINE
  8
0
 62
     0
 10
5.00091
 20
35.1276
 30
0.0
 11
19.0004
 21
35.1276
 31
0.0
  0
LINE
  8
0
 62
     0
 10
19.0004
 20
35.1276
 30
0.0
 11
19.0004
 21
21.1281
 31
0.0
  0
LINE
  8
0
 62
     0
 10
19.0004
 20
21.1281
 30
0.0
 11
5.00091
 21
21.1281
 31
0.0
  0
LINE
  8
0
 62
     0
 10
5.00091
 20
21.1281
 30
0.0
 11
5.00091
 21
35.1276
 31
0.0
  0
LINE
  8
0
 62
     0
 10
116.4
 20
26.705
 30
0.0
 11
130.094
 21
23.7932
 31
0.0
  0
LINE
  8
0
 62
     0
 10
130.094
 20
23.7932
 30
0.0
 11
133.004
 21
37.4883
 31
0.0
  0
LINE
  8
0
 62
     0
 10
133.004
 20
37.4883
 30
0.0
 11
119.311
 21
40.3987
 31
0.0
  0
LINE
  8
0
 62
     0
 10
119.311
 20
40.3987
 30
0.0
 11
116.4
 21
26.705
 31
0.0
  0
LINE
  8
0
 62
     0
 10
167.269
 20
39.1005
 30
0.0
 11
170.179
 21
25.4069
 31
0.0
  0
LINE
  8
0
 62
     0
 10
170.179
 20
25.4069
 30
0.0
 11
183.873
 21
28.3173
 31
0.0
  0
LINE
  8
0
 62
     0
 10
183.873
 20
28.3173
 30
0.0
 11
180.963
 21
42.0109
 31
0.0
  0
LINE
  8
0
 62
     0
 10
180.963
 20
42.0109
 30
0.0
 11
167.269
 21
39.1005
 31
0.0
  0
LINE
  8
0
 62
     0
 10
97.7664
 20
30.6641
 30
0.0
 11
111.46
 21
27.7551
 31
0.0
  0
LINE
  8
0
 62
     0
 10
111.46
 20
27.7551
 30
0.0
 11
114.37
 21
41.4486
 31
0.0
  0
LINE
  8
0
 62
     0
 10
114.37
 20
41.4486
 30
0.0
 11
100.677
 21
44.359
 31
0.0
  0
LINE
  8
0
 62
     0
 10
100.677
 20
44.359
 30
0.0
 11
97.7664
 21
30.6641
 31
0.0
  0
LINE
  8
0
 62
     0
 10
185.903
 20
43.0611
 30
0.0
 11
188.813
 21
29.3674
 31
0.0
  0
LINE
  8
0
 62
     0
 10
188.813
 20
29.3674
 30
0.0
 11
202.507
 21
32.2778
 31
0.0
  0
LINE
  8
0
 62
     0
 10
202.507
 20
32.2778
 30
0.0
 11
199.596
 21
45.9715
 31
0.0
  0
LINE
  8
0
 62
     0
 10
199.596
 20
45.9715
 30
0.0
 11
185.903
 21
43.0611
 31
0.0
  0
LINE
  8
0
 62
     0
 10
79.1326
 20
34.6259
 30
0.0
 11
92.8261
 21
31.7142
 31
0.0
  0
LINE
  8
0
 62
     0
 10
92.8261
 20
31.7142
 30
0.0
 11
95.7379
 21
45.4092
 31
0.0
  0
LINE
  8
0
 62
     0
 10
95.7379
 20
45.4092
 30
0.0
 11
82.0431
 21
48.3196
 31
0.0
  0
LINE
  8
0
 62
     0
 10
82.0431
 20
48.3196
 30
0.0
 11
79.1326
 21
34.6259
 31
0.0
  0
LINE
  8
0
 62
     0
 10
204.537
 20
47.0214
 30
0.0
 11
207.447
 21
33.3279
 31
0.0
  0
LINE
  8
0
 62
     0
 10
207.447
 20
33.3279
 30
0.0
 11
221.142
 21
36.2384
 31
0.0
  0
LINE
  8
0
 62
     0
 10
221.142
 20
36.2384
 30
0.0
 11
218.23
 21
49.9332
 31
0.0
  0
LINE
  8
0
 62
     0
 10
218.23
 20
49.9332
 30
0.0
 11
204.537
 21
47.0214
 31
0.0
  0
LINE
  8
0
 62
     0
 10
60.4986
 20
38.5865
 30
0.0
 11
74.1923
 21
35.6761
 31
0.0
  0
LINE
  8
0
 62
     0
 10
74.1923
 20
35.6761
 30
0.0
 11
77.1042
 21
49.3695
 31
0.0
  0
LINE
  8
0
 62
     0
 10
77.1042
 20
49.3695
 30
0.0
 11
63.409
 21
52.2813
 31
0.0
  0
LINE
  8
0
 62
     0
 10
63.409
 20
52.2813
 30
0.0
 11
60.4986
 21
38.5865
 31
0.0
  0
LINE
  8
0
 62
     0
 10
223.169
 20
50.9834
 30
0.0
 11
226.081
 21
37.2883
 31
0.0
  0
LINE
  8
0
 62
     0
 10
226.081
 20
37.2883
 30
0.0
 11
239.775
 21
40.1987
 31
0.0
  0
LINE
  8
0
 62
     0
 10
239.775
 20
40.1987
 30
0.0
 11
236.864
 21
53.8939
 31
0.0
  0
LINE
  8
0
 62
     0
 10
236.864
 20
53.8939
 30
0.0
 11
223.169
 21
50.9834
 31
0.0
  0
LINE
  8
0
 62
     0
 10
12.1447
 20
54.1775
 30
0.0
 11
12.1447
 21
49.4771
 31
0.0
  0
LINE
  8
0
 62
     0
 10
12.1447
 20
49.4771
 30
0.0
 11
10.6192
 21
49.4771
 31
0.0
  0
LINE
  8
0
 62
     0
 10
10.6192
 20
49.4771
 30
0.0
 11
10.6192
 21
52.7071
 31
0.0
  0
LINE
  8
0
 62
     0
 10
10.6192
 20
52.7071
 30
0.0
 11
3.86955
 21
52.7071
 31
0.0
  0
LINE
  8
0
 62
     0
 10
3.86955
 20
52.7071
 30
0.0
 11
3.86955
 21
49.4771
 31
0.0
  0
LINE
  8
0
 62
     0
 10
3.86955
 20
49.4771
 30
0.0
 11
3.04409
 21
49.4771
 31
0.0
  0
LINE
  8
0
 62
     0
 10
3.04409
 20
49.4771
 30
0.0
 11
3.04409
 21
46.6781
 31
0.0
  0
LINE
  8
0
 62
     0
 10
3.04409
 20
46.6781
 30
0.0
 11
3.86955
 21
46.6781
 31
0.0
  0
LINE
  8
0
 62
     0
 10
3.86955
 20
46.6781
 30
0.0
 11
3.86955
 21
40.4082
 31
0.0
  0
LINE
  8
0
 62
     0
 10
3.86955
 20
40.4082
 30
0.0
 11
5.59484
 21
40.4082
 31
0.0
  0
LINE
  8
0
 62
     0
 10
5.59484
 20
40.4082
 30
0.0
 11
5.59484
 21
39.2081
 31
0.0
  0
LINE
  8
0
 62
     0
 10
5.59484
 20
39.2081
 30
0.0
 11
8.89385
 21
39.2081
 31
0.0
  0
LINE
  8
0
 62
     0
 10
8.89385
 20
39.2081
 30
0.0
 11
8.89385
 21
40.4082
 31
0.0
  0
LINE
  8
0
 62
     0
 10
8.89385
 20
40.4082
 30
0.0
 11
10.6192
 21
40.4082
 31
0.0
  0
LINE
  8
0
 62
     0
 10
10.6192
 20
40.4082
 30
0.0
 11
10.6192
 21
44.8772
 31
0.0
  0
LINE
  8
0
 62
     0
 10
10.6192
 20
44.8772
 30
0.0
 11
12.1447
 21
44.8772
 31
0.0
  0
LINE
  8
0
 62
     0
 10
12.1447
 20
44.8772
 30
0.0
 11
12.1447
 21
40.1782
 31
0.0
  0
LINE
  8
0
 62
     0
 10
12.1447
 20
40.1782
 30
0.0
 11
26.1441
 21
40.1782
 31
0.0
  0
LINE
  8
0
 62
     0
 10
26.1441
 20
40.1782
 30
0.0
 11
26.1441
 21
44.8772
 31
0.0
  0
LINE
  8
0
 62
     0
 10
26.1441
 20
44.8772
 30
0.0
 11
27.6696
 21
44.8772
 31
0.0
  0
LINE
  8
0
 62
     0
 10
27.6696
 20
44.8772
 30
0.0
 11
27.6696
 21
40.4082
 31
0.0
  0
LINE
  8
0
 62
     0
 10
27.6696
 20
40.4082
 30
0.0
 11
29.3949
 21
40.4082
 31
0.0
  0
LINE
  8
0
 62
     0
 10
29.3949
 20
40.4082
 30
0.0
 11
29.3949
 21
39.2081
 31
0.0
  0
LINE
  8
0
 62
     0
 10
29.3949
 20
39.2081
 30
0.0
 11
32.694
 21
39.2081
 31
0.0
  0
LINE
  8
0
 62
     0
 10
32.694
 20
39.2081
 30
0.0
 11
32.694
 21
40.4082
 31
0.0
  0
LINE
  8
0
 62
     0
 10
32.694
 20
40.4082
 30
0.0
 11
34.4193
 21
40.4082
 31
0.0
  0
LINE
  8
0
 62
     0
 10
34.4193
 20
40.4082
 30
0.0
 11
34.4193
 21
46.6781
 31
0.0
  0
LINE
  8
0
 62
     0
 10
34.4193
 20
46.6781
 30
0.0
 11
35.2447
 21
46.6781
 31
0.0
  0
LINE
  8
0
 62
     0
 10
35.2447
 20
46.6781
 30
0.0
 11
35.2447
 21
49.4771
 31
0.0
  0
LINE
  8
0
 62
     0
 10
35.2447
 20
49.4771
 30
0.0
 11
34.4193
 21
49.4771
 31
0.0
  0
LINE
  8
0
 62
     0
 10
34.4193
 20
49.4771
 30
0.0
 11
34.4193
 21
52.7071
 31
0.0
  0
LINE
  8
0
 62
     0
 10
34.4193
 20
52.7071
 30
0.0
 11
27.6696
 21
52.7071
 31
0.0
  0
LINE
  8
0
 62
     0
 10
27.6696
 20
52.7071
 30
0.0
 11
27.6696
 21
49.4771
 31
0.0
  0
LINE
  8
0
 62
     0
 10
27.6696
 20
49.4771
 30
0.0
 11
26.1441
 21
49.4771
 31
0.0
  0
LINE
  8
0
 62
     0
 10
26.1441
 20
49.4771
 30
0.0
 11
26.1441
 21
54.1775
 31
0.0
  0
LINE
  8
0
 62
     0
 10
26.1441
 20
54.1775
 30
0.0
 11
12.1447
 21
54.1775
 31
0.0
  0
LINE
  8
0
 62
     0
 10
316.945
 20
54.1775
 30
0.0
 11
330.944
 21
54.1775
 31
0.0
  0
LINE
  8
0
 62
     0
 10
330.944
 20
54.1775
 30
0.0
 11
330.944
 21
40.1782
 31
0.0
  0
LINE
  8
0
 62
     0
 10
330.944
 20
40.1782
 30
0.0
 11
316.945
 21
40.1782
 31
0.0
  0
LINE
  8
0
 62
     0
 10
316.945
 20
40.1782
 30
0.0
 11
316.945
 21
54.1775
 31
0.0
  0
LINE
  8
0
 62
     0
 10
297.895
 20
54.1775
 30
0.0
 11
311.894
 21
54.1775
 31
0.0
  0
LINE
  8
0
 62
     0
 10
311.894
 20
54.1775
 30
0.0
 11
311.894
 21
40.1782
 31
0.0
  0
LINE
  8
0
 62
     0
 10
311.894
 20
40.1782
 30
0.0
 11
297.895
 21
40.1782
 31
0.0
  0
LINE
  8
0
 62
     0
 10
297.895
 20
40.1782
 30
0.0
 11
297.895
 21
54.1775
 31
0.0
  0
LINE
  8
0
 62
     0
 10
271.701
 20
54.1775
 30
0.0
 11
285.7
 21
54.1775
 31
0.0
  0
LINE
  8
0
 62
     0
 10
285.7
 20
54.1775
 30
0.0
 11
285.7
 21
40.1782
 31
0.0
  0
LINE
  8
0
 62
     0
 10
285.7
 20
40.1782
 30
0.0
 11
271.701
 21
40.1782
 31
0.0
  0
LINE
  8
0
 62
     0
 10
271.701
 20
40.1782
 30
0.0
 11
271.701
 21
54.1775
 31
0.0
  0
LINE
  8
0
 62
     0
 10
245.507
 20
54.1775
 30
0.0
 11
259.507
 21
54.1775
 31
0.0
  0
LINE
  8
0
 62
     0
 10
259.507
 20
54.1775
 30
0.0
 11
259.507
 21
40.1782
 31
0.0
  0
LINE
  8
0
 62
     0
 10
259.507
 20
40.1782
 30
0.0
 11
245.507
 21
40.1782
 31
0.0
  0
LINE
  8
0
 62
     0
 10
245.507
 20
40.1782
 30
0.0
 11
245.507
 21
54.1775
 31
0.0
  0
LINE
  8
0
 62
     0
 10
138.826
 20
54.1775
 30
0.0
 11
152.826
 21
54.1775
 31
0.0
  0
LINE
  8
0
 62
     0
 10
152.826
 20
54.1775
 30
0.0
 11
152.826
 21
40.1782
 31
0.0
  0
LINE
  8
0
 62
     0
 10
152.826
 20
40.1782
 30
0.0
 11
138.826
 21
40.1782
 31
0.0
  0
LINE
  8
0
 62
     0
 10
138.826
 20
40.1782
 30
0.0
 11
138.826
 21
54.1775
 31
0.0
  0
LINE
  8
0
 62
     0
 10
40.7197
 20
54.1775
 30
0.0
 11
54.719
 21
54.1775
 31
0.0
  0
LINE
  8
0
 62
     0
 10
54.719
 20
54.1775
 30
0.0
 11
54.719
 21
40.1782
 31
0.0
  0
LINE
  8
0
 62
     0
 10
54.719
 20
40.1782
 30
0.0
 11
40.7197
 21
40.1782
 31
0.0
  0
LINE
  8
0
 62
     0
 10
40.7197
 20
40.1782
 30
0.0
 11
40.7197
 21
54.1775
 31
0.0
  0
LINE
  8
0
 62
     0
 10
158.649
 20
56.7436
 30
0.0
 11
161.56
 21
43.0498
 31
0.0
  0
LINE
  8
0
 62
     0
 10
161.56
 20
43.0498
 30
0.0
 11
175.255
 21
45.9602
 31
0.0
  0
LINE
  8
0
 62
     0
 10
175.255
 20
45.9602
 30
0.0
 11
172.343
 21
59.6554
 31
0.0
  0
LINE
  8
0
 62
     0
 10
172.343
 20
59.6554
 30
0.0
 11
158.649
 21
56.7436
 31
0.0
  0
LINE
  8
0
 62
     0
 10
111.044
 20
47.3191
 30
0.0
 11
124.737
 21
44.4073
 31
0.0
  0
LINE
  8
0
 62
     0
 10
124.737
 20
44.4073
 30
0.0
 11
127.649
 21
58.1021
 31
0.0
  0
LINE
  8
0
 62
     0
 10
127.649
 20
58.1021
 30
0.0
 11
113.954
 21
61.0126
 31
0.0
  0
LINE
  8
0
 62
     0
 10
113.954
 20
61.0126
 30
0.0
 11
111.044
 21
47.3191
 31
0.0
  0
LINE
  8
0
 62
     0
 10
177.283
 20
60.7053
 30
0.0
 11
180.195
 21
47.0105
 31
0.0
  0
LINE
  8
0
 62
     0
 10
180.195
 20
47.0105
 30
0.0
 11
193.888
 21
49.9223
 31
0.0
  0
LINE
  8
0
 62
     0
 10
193.888
 20
49.9223
 30
0.0
 11
190.978
 21
63.6157
 31
0.0
  0
LINE
  8
0
 62
     0
 10
190.978
 20
63.6157
 30
0.0
 11
177.283
 21
60.7053
 31
0.0
  0
LINE
  8
0
 62
     0
 10
92.4098
 20
51.2794
 30
0.0
 11
106.105
 21
48.369
 31
0.0
  0
LINE
  8
0
 62
     0
 10
106.105
 20
48.369
 30
0.0
 11
109.014
 21
62.0628
 31
0.0
  0
LINE
  8
0
 62
     0
 10
109.014
 20
62.0628
 30
0.0
 11
95.3202
 21
64.9732
 31
0.0
  0
LINE
  8
0
 62
     0
 10
95.3202
 20
64.9732
 30
0.0
 11
92.4098
 21
51.2794
 31
0.0
  0
LINE
  8
0
 62
     0
 10
195.917
 20
64.6659
 30
0.0
 11
198.827
 21
50.9722
 31
0.0
  0
LINE
  8
0
 62
     0
 10
198.827
 20
50.9722
 30
0.0
 11
212.521
 21
53.8812
 31
0.0
  0
LINE
  8
0
 62
     0
 10
212.521
 20
53.8812
 30
0.0
 11
209.612
 21
67.5763
 31
0.0
  0
LINE
  8
0
 62
     0
 10
209.612
 20
67.5763
 30
0.0
 11
195.917
 21
64.6659
 31
0.0
  0
LINE
  8
0
 62
     0
 10
73.7761
 20
55.2401
 30
0.0
 11
87.4709
 21
52.3282
 31
0.0
  0
LINE
  8
0
 62
     0
 10
87.4709
 20
52.3282
 30
0.0
 11
90.3813
 21
66.0231
 31
0.0
  0
LINE
  8
0
 62
     0
 10
90.3813
 20
66.0231
 30
0.0
 11
76.6879
 21
68.9335
 31
0.0
  0
LINE
  8
0
 62
     0
 10
76.6879
 20
68.9335
 30
0.0
 11
73.7761
 21
55.2401
 31
0.0
  0
LINE
  8
0
 62
     0
 10
214.551
 20
68.6262
 30
0.0
 11
217.461
 21
54.9314
 31
0.0
  0
LINE
  8
0
 62
     0
 10
217.461
 20
54.9314
 30
0.0
 11
231.155
 21
57.8432
 31
0.0
  0
LINE
  8
0
 62
     0
 10
231.155
 20
57.8432
 30
0.0
 11
228.244
 21
71.5366
 31
0.0
  0
LINE
  8
0
 62
     0
 10
228.244
 20
71.5366
 30
0.0
 11
214.551
 21
68.6262
 31
0.0
  0
LINE
  8
0
 62
     0
 10
55.1423
 20
59.2007
 30
0.0
 11
68.8372
 21
56.2903
 31
0.0
  0
LINE
  8
0
 62
     0
 10
68.8372
 20
56.2903
 30
0.0
 11
71.7476
 21
69.9837
 31
0.0
  0
LINE
  8
0
 62
     0
 10
71.7476
 20
69.9837
 30
0.0
 11
58.0542
 21
72.8941
 31
0.0
  0
LINE
  8
0
 62
     0
 10
58.0542
 20
72.8941
 30
0.0
 11
55.1423
 21
59.2007
 31
0.0
  0
LINE
  8
0
 62
     0
 10
285.987
 20
73.2275
 30
0.0
 11
285.987
 21
68.5271
 31
0.0
  0
LINE
  8
0
 62
     0
 10
285.987
 20
68.5271
 30
0.0
 11
284.463
 21
68.5271
 31
0.0
  0
LINE
  8
0
 62
     0
 10
284.463
 20
68.5271
 30
0.0
 11
284.463
 21
71.7571
 31
0.0
  0
LINE
  8
0
 62
     0
 10
284.463
 20
71.7571
 30
0.0
 11
277.712
 21
71.7571
 31
0.0
  0
LINE
  8
0
 62
     0
 10
277.712
 20
71.7571
 30
0.0
 11
277.712
 21
68.5271
 31
0.0
  0
LINE
  8
0
 62
     0
 10
277.712
 20
68.5271
 30
0.0
 11
276.888
 21
68.5271
 31
0.0
  0
LINE
  8
0
 62
     0
 10
276.888
 20
68.5271
 30
0.0
 11
276.888
 21
65.7281
 31
0.0
  0
LINE
  8
0
 62
     0
 10
276.888
 20
65.7281
 30
0.0
 11
277.712
 21
65.7281
 31
0.0
  0
LINE
  8
0
 62
     0
 10
277.712
 20
65.7281
 30
0.0
 11
277.712
 21
59.4582
 31
0.0
  0
LINE
  8
0
 62
     0
 10
277.712
 20
59.4582
 30
0.0
 11
279.437
 21
59.4582
 31
0.0
  0
LINE
  8
0
 62
     0
 10
279.437
 20
59.4582
 30
0.0
 11
279.437
 21
58.2581
 31
0.0
  0
LINE
  8
0
 62
     0
 10
279.437
 20
58.2581
 30
0.0
 11
282.738
 21
58.2581
 31
0.0
  0
LINE
  8
0
 62
     0
 10
282.738
 20
58.2581
 30
0.0
 11
282.738
 21
59.4582
 31
0.0
  0
LINE
  8
0
 62
     0
 10
282.738
 20
59.4582
 30
0.0
 11
284.463
 21
59.4582
 31
0.0
  0
LINE
  8
0
 62
     0
 10
284.463
 20
59.4582
 30
0.0
 11
284.463
 21
63.9272
 31
0.0
  0
LINE
  8
0
 62
     0
 10
284.463
 20
63.9272
 30
0.0
 11
285.987
 21
63.9272
 31
0.0
  0
LINE
  8
0
 62
     0
 10
285.987
 20
63.9272
 30
0.0
 11
285.987
 21
59.2282
 31
0.0
  0
LINE
  8
0
 62
     0
 10
285.987
 20
59.2282
 30
0.0
 11
299.988
 21
59.2282
 31
0.0
  0
LINE
  8
0
 62
     0
 10
299.988
 20
59.2282
 30
0.0
 11
299.988
 21
63.9272
 31
0.0
  0
LINE
  8
0
 62
     0
 10
299.988
 20
63.9272
 30
0.0
 11
301.512
 21
63.9272
 31
0.0
  0
LINE
  8
0
 62
     0
 10
301.512
 20
63.9272
 30
0.0
 11
301.512
 21
59.4582
 31
0.0
  0
LINE
  8
0
 62
     0
 10
301.512
 20
59.4582
 30
0.0
 11
303.237
 21
59.4582
 31
0.0
  0
LINE
  8
0
 62
     0
 10
303.237
 20
59.4582
 30
0.0
 11
303.237
 21
58.2581
 31
0.0
  0
LINE
  8
0
 62
     0
 10
303.237
 20
58.2581
 30
0.0
 11
306.538
 21
58.2581
 31
0.0
  0
LINE
  8
0
 62
     0
 10
306.538
 20
58.2581
 30
0.0
 11
306.538
 21
59.4582
 31
0.0
  0
LINE
  8
0
 62
     0
 10
306.538
 20
59.4582
 30
0.0
 11
308.263
 21
59.4582
 31
0.0
  0
LINE
  8
0
 62
     0
 10
308.263
 20
59.4582
 30
0.0
 11
308.263
 21
65.7281
 31
0.0
  0
LINE
  8
0
 62
     0
 10
308.263
 20
65.7281
 30
0.0
 11
309.087
 21
65.7281
 31
0.0
  0
LINE
  8
0
 62
     0
 10
309.087
 20
65.7281
 30
0.0
 11
309.087
 21
68.5271
 31
0.0
  0
LINE
  8
0
 62
     0
 10
309.087
 20
68.5271
 30
0.0
 11
308.263
 21
68.5271
 31
0.0
  0
LINE
  8
0
 62
     0
 10
308.263
 20
68.5271
 30
0.0
 11
308.263
 21
71.7571
 31
0.0
  0
LINE
  8
0
 62
     0
 10
308.263
 20
71.7571
 30
0.0
 11
301.512
 21
71.7571
 31
0.0
  0
LINE
  8
0
 62
     0
 10
301.512
 20
71.7571
 30
0.0
 11
301.512
 21
68.5271
 31
0.0
  0
LINE
  8
0
 62
     0
 10
301.512
 20
68.5271
 30
0.0
 11
299.988
 21
68.5271
 31
0.0
  0
LINE
  8
0
 62
     0
 10
299.988
 20
68.5271
 30
0.0
 11
299.988
 21
73.2275
 31
0.0
  0
LINE
  8
0
 62
     0
 10
299.988
 20
73.2275
 30
0.0
 11
285.987
 21
73.2275
 31
0.0
  0
LINE
  8
0
 62
     0
 10
316.945
 20
73.2275
 30
0.0
 11
330.944
 21
73.2275
 31
0.0
  0
LINE
  8
0
 62
     0
 10
330.944
 20
73.2275
 30
0.0
 11
330.944
 21
59.2282
 31
0.0
  0
LINE
  8
0
 62
     0
 10
330.944
 20
59.2282
 30
0.0
 11
316.945
 21
59.2282
 31
0.0
  0
LINE
  8
0
 62
     0
 10
316.945
 20
59.2282
 30
0.0
 11
316.945
 21
73.2275
 31
0.0
  0
LINE
  8
0
 62
     0
 10
255.032
 20
73.2275
 30
0.0
 11
269.032
 21
73.2275
 31
0.0
  0
LINE
  8
0
 62
     0
 10
269.032
 20
73.2275
 30
0.0
 11
269.032
 21
59.2282
 31
0.0
  0
LINE
  8
0
 62
     0
 10
269.032
 20
59.2282
 30
0.0
 11
255.032
 21
59.2282
 31
0.0
  0
LINE
  8
0
 62
     0
 10
255.032
 20
59.2282
 30
0.0
 11
255.032
 21
73.2275
 31
0.0
  0
LINE
  8
0
 62
     0
 10
235.982
 20
73.2275
 30
0.0
 11
249.982
 21
73.2275
 31
0.0
  0
LINE
  8
0
 62
     0
 10
249.982
 20
73.2275
 30
0.0
 11
249.982
 21
59.2282
 31
0.0
  0
LINE
  8
0
 62
     0
 10
249.982
 20
59.2282
 30
0.0
 11
235.982
 21
59.2282
 31
0.0
  0
LINE
  8
0
 62
     0
 10
235.982
 20
59.2282
 30
0.0
 11
235.982
 21
73.2275
 31
0.0
  0
LINE
  8
0
 62
     0
 10
35.9572
 20
73.2275
 30
0.0
 11
49.9565
 21
73.2275
 31
0.0
  0
LINE
  8
0
 62
     0
 10
49.9565
 20
73.2275
 30
0.0
 11
49.9565
 21
59.2282
 31
0.0
  0
LINE
  8
0
 62
     0
 10
49.9565
 20
59.2282
 30
0.0
 11
35.9572
 21
59.2282
 31
0.0
  0
LINE
  8
0
 62
     0
 10
35.9572
 20
59.2282
 30
0.0
 11
35.9572
 21
73.2275
 31
0.0
  0
LINE
  8
0
 62
     0
 10
9.76203
 20
73.2275
 30
0.0
 11
23.7629
 21
73.2275
 31
0.0
  0
LINE
  8
0
 62
     0
 10
23.7629
 20
73.2275
 30
0.0
 11
23.7629
 21
59.2282
 31
0.0
  0
LINE
  8
0
 62
     0
 10
23.7629
 20
59.2282
 30
0.0
 11
9.76203
 21
59.2282
 31
0.0
  0
LINE
  8
0
 62
     0
 10
9.76203
 20
59.2282
 30
0.0
 11
9.76203
 21
73.2275
 31
0.0
  0
LINE
  8
0
 62
     0
 10
150.031
 20
74.3878
 30
0.0
 11
152.942
 21
60.6944
 31
0.0
  0
LINE
  8
0
 62
     0
 10
152.942
 20
60.6944
 30
0.0
 11
166.635
 21
63.6034
 31
0.0
  0
LINE
  8
0
 62
     0
 10
166.635
 20
63.6034
 30
0.0
 11
163.725
 21
77.2982
 31
0.0
  0
LINE
  8
0
 62
     0
 10
163.725
 20
77.2982
 30
0.0
 11
150.031
 21
74.3878
 31
0.0
  0
LINE
  8
0
 62
     0
 10
110.345
 20
66.9424
 30
0.0
 11
124.04
 21
64.032
 31
0.0
  0
LINE
  8
0
 62
     0
 10
124.04
 20
64.032
 30
0.0
 11
126.95
 21
77.7254
 31
0.0
  0
LINE
  8
0
 62
     0
 10
126.95
 20
77.7254
 30
0.0
 11
113.257
 21
80.6372
 31
0.0
  0
LINE
  8
0
 62
     0
 10
113.257
 20
80.6372
 30
0.0
 11
110.345
 21
66.9424
 31
0.0
  0
LINE
  8
0
 62
     0
 10
168.665
 20
78.3484
 30
0.0
 11
171.575
 21
64.6536
 31
0.0
  0
LINE
  8
0
 62
     0
 10
171.575
 20
64.6536
 30
0.0
 11
185.269
 21
67.5651
 31
0.0
  0
LINE
  8
0
 62
     0
 10
185.269
 20
67.5651
 30
0.0
 11
182.359
 21
81.2588
 31
0.0
  0
LINE
  8
0
 62
     0
 10
182.359
 20
81.2588
 30
0.0
 11
168.665
 21
78.3484
 31
0.0
  0
LINE
  8
0
 62
     0
 10
91.7127
 20
70.9027
 30
0.0
 11
105.406
 21
67.9923
 31
0.0
  0
LINE
  8
0
 62
     0
 10
105.406
 20
67.9923
 30
0.0
 11
108.318
 21
81.6875
 31
0.0
  0
LINE
  8
0
 62
     0
 10
108.318
 20
81.6875
 30
0.0
 11
94.6231
 21
84.5965
 31
0.0
  0
LINE
  8
0
 62
     0
 10
94.6231
 20
84.5965
 30
0.0
 11
91.7127
 21
70.9027
 31
0.0
  0
LINE
  8
0
 62
     0
 10
187.297
 20
82.3087
 30
0.0
 11
190.208
 21
68.6153
 31
0.0
  0
LINE
  8
0
 62
     0
 10
190.208
 20
68.6153
 30
0.0
 11
203.903
 21
71.5257
 31
0.0
  0
LINE
  8
0
 62
     0
 10
203.903
 20
71.5257
 30
0.0
 11
200.992
 21
85.2191
 31
0.0
  0
LINE
  8
0
 62
     0
 10
200.992
 20
85.2191
 30
0.0
 11
187.297
 21
82.3087
 31
0.0
  0
LINE
  8
0
 62
     0
 10
73.0786
 20
74.8633
 30
0.0
 11
86.7724
 21
71.9529
 31
0.0
  0
LINE
  8
0
 62
     0
 10
86.7724
 20
71.9529
 30
0.0
 11
89.6842
 21
85.6463
 31
0.0
  0
LINE
  8
0
 62
     0
 10
89.6842
 20
85.6463
 30
0.0
 11
75.989
 21
88.5582
 31
0.0
  0
LINE
  8
0
 62
     0
 10
75.989
 20
88.5582
 30
0.0
 11
73.0786
 21
74.8633
 31
0.0
  0
LINE
  8
0
 62
     0
 10
205.931
 20
86.2693
 30
0.0
 11
208.843
 21
72.5759
 31
0.0
  0
LINE
  8
0
 62
     0
 10
208.843
 20
72.5759
 30
0.0
 11
222.537
 21
75.4863
 31
0.0
  0
LINE
  8
0
 62
     0
 10
222.537
 20
75.4863
 30
0.0
 11
219.625
 21
89.1812
 31
0.0
  0
LINE
  8
0
 62
     0
 10
219.625
 20
89.1812
 30
0.0
 11
205.931
 21
86.2693
 31
0.0
  0
LINE
  8
0
 62
     0
 10
54.4449
 20
78.825
 30
0.0
 11
68.1383
 21
75.9135
 31
0.0
  0
LINE
  8
0
 62
     0
 10
68.1383
 20
75.9135
 30
0.0
 11
71.0487
 21
89.6084
 31
0.0
  0
LINE
  8
0
 62
     0
 10
71.0487
 20
89.6084
 30
0.0
 11
57.3553
 21
92.5188
 31
0.0
  0
LINE
  8
0
 62
     0
 10
57.3553
 20
92.5188
 30
0.0
 11
54.4449
 21
78.825
 31
0.0
  0
LINE
  8
0
 62
     0
 10
224.565
 20
90.231
 30
0.0
 11
227.477
 21
76.5362
 31
0.0
  0
LINE
  8
0
 62
     0
 10
227.477
 20
76.5362
 30
0.0
 11
241.171
 21
79.4466
 31
0.0
  0
LINE
  8
0
 62
     0
 10
241.171
 20
79.4466
 30
0.0
 11
238.26
 21
93.1404
 31
0.0
  0
LINE
  8
0
 62
     0
 10
238.26
 20
93.1404
 30
0.0
 11
224.565
 21
90.231
 31
0.0
  0
LINE
  8
0
 62
     0
 10
313.134
 20
92.2775
 30
0.0
 11
327.134
 21
92.2775
 31
0.0
  0
LINE
  8
0
 62
     0
 10
327.134
 20
92.2775
 30
0.0
 11
327.134
 21
78.2782
 31
0.0
  0
LINE
  8
0
 62
     0
 10
327.134
 20
78.2782
 30
0.0
 11
313.134
 21
78.2782
 31
0.0
  0
LINE
  8
0
 62
     0
 10
313.134
 20
78.2782
 30
0.0
 11
313.134
 21
92.2775
 31
0.0
  0
LINE
  8
0
 62
     0
 10
289.322
 20
92.2775
 30
0.0
 11
303.322
 21
92.2775
 31
0.0
  0
LINE
  8
0
 62
     0
 10
303.322
 20
92.2775
 30
0.0
 11
303.322
 21
78.2782
 31
0.0
  0
LINE
  8
0
 62
     0
 10
303.322
 20
78.2782
 30
0.0
 11
289.322
 21
78.2782
 31
0.0
  0
LINE
  8
0
 62
     0
 10
289.322
 20
78.2782
 30
0.0
 11
289.322
 21
92.2775
 31
0.0
  0
LINE
  8
0
 62
     0
 10
265.509
 20
92.2775
 30
0.0
 11
279.509
 21
92.2775
 31
0.0
  0
LINE
  8
0
 62
     0
 10
279.509
 20
92.2775
 30
0.0
 11
279.509
 21
78.2782
 31
0.0
  0
LINE
  8
0
 62
     0
 10
279.509
 20
78.2782
 30
0.0
 11
265.509
 21
78.2782
 31
0.0
  0
LINE
  8
0
 62
     0
 10
265.509
 20
78.2782
 30
0.0
 11
265.509
 21
92.2775
 31
0.0
  0
LINE
  8
0
 62
     0
 10
246.459
 20
92.2775
 30
0.0
 11
260.459
 21
92.2775
 31
0.0
  0
LINE
  8
0
 62
     0
 10
260.459
 20
92.2775
 30
0.0
 11
260.459
 21
78.2782
 31
0.0
  0
LINE
  8
0
 62
     0
 10
260.459
 20
78.2782
 30
0.0
 11
246.459
 21
78.2782
 31
0.0
  0
LINE
  8
0
 62
     0
 10
246.459
 20
78.2782
 30
0.0
 11
246.459
 21
92.2775
 31
0.0
  0
LINE
  8
0
 62
     0
 10
35.0049
 20
92.2775
 30
0.0
 11
49.0044
 21
92.2775
 31
0.0
  0
LINE
  8
0
 62
     0
 10
49.0044
 20
92.2775
 30
0.0
 11
49.0044
 21
78.2782
 31
0.0
  0
LINE
  8
0
 62
     0
 10
49.0044
 20
78.2782
 30
0.0
 11
35.0049
 21
78.2782
 31
0.0
  0
LINE
  8
0
 62
     0
 10
35.0049
 20
78.2782
 30
0.0
 11
35.0049
 21
92.2775
 31
0.0
  0
LINE
  8
0
 62
     0
 10
11.1911
 20
92.2775
 30
0.0
 11
25.1919
 21
92.2775
 31
0.0
  0
LINE
  8
0
 62
     0
 10
25.1919
 20
92.2775
 30
0.0
 11
25.1919
 21
78.2782
 31
0.0
  0
LINE
  8
0
 62
     0
 10
25.1919
 20
78.2782
 30
0.0
 11
11.1911
 21
78.2782
 31
0.0
  0
LINE
  8
0
 62
     0
 10
11.1911
 20
78.2782
 30
0.0
 11
11.1911
 21
92.2775
 31
0.0
  0
LINE
  8
0
 62
     0
 10
123.624
 20
83.596
 30
0.0
 11
137.317
 21
80.6842
 31
0.0
  0
LINE
  8
0
 62
     0
 10
137.317
 20
80.6842
 30
0.0
 11
140.229
 21
94.379
 31
0.0
  0
LINE
  8
0
 62
     0
 10
140.229
 20
94.379
 30
0.0
 11
126.534
 21
97.2894
 31
0.0
  0
LINE
  8
0
 62
     0
 10
126.534
 20
97.2894
 30
0.0
 11
123.624
 21
83.596
 31
0.0
  0
LINE
  8
0
 62
     0
 10
155.386
 20
95.002
 30
0.0
 11
158.298
 21
81.3082
 31
0.0
  0
LINE
  8
0
 62
     0
 10
158.298
 20
81.3082
 30
0.0
 11
171.992
 21
84.2176
 31
0.0
  0
LINE
  8
0
 62
     0
 10
171.992
 20
84.2176
 30
0.0
 11
169.081
 21
97.9124
 31
0.0
  0
LINE
  8
0
 62
     0
 10
169.081
 20
97.9124
 30
0.0
 11
155.386
 21
95.002
 31
0.0
  0
LINE
  8
0
 62
     0
 10
104.99
 20
87.5563
 30
0.0
 11
118.684
 21
84.6459
 31
0.0
  0
LINE
  8
0
 62
     0
 10
118.684
 20
84.6459
 30
0.0
 11
121.594
 21
98.3396
 31
0.0
  0
LINE
  8
0
 62
     0
 10
121.594
 20
98.3396
 30
0.0
 11
107.9
 21
101.251
 31
0.0
  0
LINE
  8
0
 62
     0
 10
107.9
 20
101.251
 30
0.0
 11
104.99
 21
87.5563
 31
0.0
  0
LINE
  8
0
 62
     0
 10
174.02
 20
98.9612
 30
0.0
 11
176.932
 21
85.2674
 31
0.0
  0
LINE
  8
0
 62
     0
 10
176.932
 20
85.2674
 30
0.0
 11
190.625
 21
88.1793
 31
0.0
  0
LINE
  8
0
 62
     0
 10
190.625
 20
88.1793
 30
0.0
 11
187.715
 21
101.873
 31
0.0
  0
LINE
  8
0
 62
     0
 10
187.715
 20
101.873
 30
0.0
 11
174.02
 21
98.9612
 31
0.0
  0
LINE
  8
0
 62
     0
 10
86.3561
 20
91.5169
 30
0.0
 11
100.051
 21
88.6065
 31
0.0
  0
LINE
  8
0
 62
     0
 10
100.051
 20
88.6065
 30
0.0
 11
102.96
 21
102.301
 31
0.0
  0
LINE
  8
0
 62
     0
 10
102.96
 20
102.301
 30
0.0
 11
89.2665
 21
105.212
 31
0.0
  0
LINE
  8
0
 62
     0
 10
89.2665
 20
105.212
 30
0.0
 11
86.3561
 21
91.5169
 31
0.0
  0
LINE
  8
0
 62
     0
 10
192.654
 20
102.923
 30
0.0
 11
195.564
 21
89.2295
 31
0.0
  0
LINE
  8
0
 62
     0
 10
195.564
 20
89.2295
 30
0.0
 11
209.258
 21
92.1399
 31
0.0
  0
LINE
  8
0
 62
     0
 10
209.258
 20
92.1399
 30
0.0
 11
206.349
 21
105.833
 31
0.0
  0
LINE
  8
0
 62
     0
 10
206.349
 20
105.833
 30
0.0
 11
192.654
 21
102.923
 31
0.0
  0
LINE
  8
0
 62
     0
 10
67.7224
 20
95.4775
 30
0.0
 11
81.4158
 21
92.5671
 31
0.0
  0
LINE
  8
0
 62
     0
 10
81.4158
 20
92.5671
 30
0.0
 11
84.3276
 21
106.262
 31
0.0
  0
LINE
  8
0
 62
     0
 10
84.3276
 20
106.262
 30
0.0
 11
70.6342
 21
109.172
 31
0.0
  0
LINE
  8
0
 62
     0
 10
70.6342
 20
109.172
 30
0.0
 11
67.7224
 21
95.4775
 31
0.0
  0
LINE
  8
0
 62
     0
 10
211.288
 20
106.884
 30
0.0
 11
214.198
 21
93.1898
 31
0.0
  0
LINE
  8
0
 62
     0
 10
214.198
 20
93.1898
 30
0.0
 11
227.893
 21
96.1002
 31
0.0
  0
LINE
  8
0
 62
     0
 10
227.893
 20
96.1002
 30
0.0
 11
224.981
 21
109.795
 31
0.0
  0
LINE
  8
0
 62
     0
 10
224.981
 20
109.795
 30
0.0
 11
211.288
 21
106.884
 31
0.0
  0
LINE
  8
0
 62
     0
 10
280.749
 20
111.327
 30
0.0
 11
280.749
 21
106.627
 31
0.0
  0
LINE
  8
0
 62
     0
 10
280.749
 20
106.627
 30
0.0
 11
279.225
 21
106.627
 31
0.0
  0
LINE
  8
0
 62
     0
 10
279.225
 20
106.627
 30
0.0
 11
279.225
 21
109.857
 31
0.0
  0
LINE
  8
0
 62
     0
 10
279.225
 20
109.857
 30
0.0
 11
272.474
 21
109.857
 31
0.0
  0
LINE
  8
0
 62
     0
 10
272.474
 20
109.857
 30
0.0
 11
272.474
 21
106.627
 31
0.0
  0
LINE
  8
0
 62
     0
 10
272.474
 20
106.627
 30
0.0
 11
271.65
 21
106.627
 31
0.0
  0
LINE
  8
0
 62
     0
 10
271.65
 20
106.627
 30
0.0
 11
271.65
 21
103.828
 31
0.0
  0
LINE
  8
0
 62
     0
 10
271.65
 20
103.828
 30
0.0
 11
272.474
 21
103.828
 31
0.0
  0
LINE
  8
0
 62
     0
 10
272.474
 20
103.828
 30
0.0
 11
272.474
 21
97.5582
 31
0.0
  0
LINE
  8
0
 62
     0
 10
272.474
 20
97.5582
 30
0.0
 11
274.199
 21
97.5582
 31
0.0
  0
LINE
  8
0
 62
     0
 10
274.199
 20
97.5582
 30
0.0
 11
274.199
 21
96.3581
 31
0.0
  0
LINE
  8
0
 62
     0
 10
274.199
 20
96.3581
 30
0.0
 11
277.5
 21
96.3581
 31
0.0
  0
LINE
  8
0
 62
     0
 10
277.5
 20
96.3581
 30
0.0
 11
277.5
 21
97.5582
 31
0.0
  0
LINE
  8
0
 62
     0
 10
277.5
 20
97.5582
 30
0.0
 11
279.225
 21
97.5582
 31
0.0
  0
LINE
  8
0
 62
     0
 10
279.225
 20
97.5582
 30
0.0
 11
279.225
 21
102.027
 31
0.0
  0
LINE
  8
0
 62
     0
 10
279.225
 20
102.027
 30
0.0
 11
280.749
 21
102.027
 31
0.0
  0
LINE
  8
0
 62
     0
 10
280.749
 20
102.027
 30
0.0
 11
280.749
 21
97.3282
 31
0.0
  0
LINE
  8
0
 62
     0
 10
280.749
 20
97.3282
 30
0.0
 11
294.75
 21
97.3282
 31
0.0
  0
LINE
  8
0
 62
     0
 10
294.75
 20
97.3282
 30
0.0
 11
294.75
 21
102.027
 31
0.0
  0
LINE
  8
0
 62
     0
 10
294.75
 20
102.027
 30
0.0
 11
296.274
 21
102.027
 31
0.0
  0
LINE
  8
0
 62
     0
 10
296.274
 20
102.027
 30
0.0
 11
296.274
 21
97.5582
 31
0.0
  0
LINE
  8
0
 62
     0
 10
296.274
 20
97.5582
 30
0.0
 11
298
 21
97.5582
 31
0.0
  0
LINE
  8
0
 62
     0
 10
298
 20
97.5582
 30
0.0
 11
298
 21
96.3581
 31
0.0
  0
LINE
  8
0
 62
     0
 10
298
 20
96.3581
 30
0.0
 11
301.3
 21
96.3581
 31
0.0
  0
LINE
  8
0
 62
     0
 10
301.3
 20
96.3581
 30
0.0
 11
301.3
 21
97.5582
 31
0.0
  0
LINE
  8
0
 62
     0
 10
301.3
 20
97.5582
 30
0.0
 11
303.025
 21
97.5582
 31
0.0
  0
LINE
  8
0
 62
     0
 10
303.025
 20
97.5582
 30
0.0
 11
303.025
 21
103.828
 31
0.0
  0
LINE
  8
0
 62
     0
 10
303.025
 20
103.828
 30
0.0
 11
303.849
 21
103.828
 31
0.0
  0
LINE
  8
0
 62
     0
 10
303.849
 20
103.828
 30
0.0
 11
303.849
 21
106.627
 31
0.0
  0
LINE
  8
0
 62
     0
 10
303.849
 20
106.627
 30
0.0
 11
303.025
 21
106.627
 31
0.0
  0
LINE
  8
0
 62
     0
 10
303.025
 20
106.627
 30
0.0
 11
303.025
 21
109.857
 31
0.0
  0
LINE
  8
0
 62
     0
 10
303.025
 20
109.857
 30
0.0
 11
296.274
 21
109.857
 31
0.0
  0
LINE
  8
0
 62
     0
 10
296.274
 20
109.857
 30
0.0
 11
296.274
 21
106.627
 31
0.0
  0
LINE
  8
0
 62
     0
 10
296.274
 20
106.627
 30
0.0
 11
294.75
 21
106.627
 31
0.0
  0
LINE
  8
0
 62
     0
 10
294.75
 20
106.627
 30
0.0
 11
294.75
 21
111.327
 31
0.0
  0
LINE
  8
0
 62
     0
 10
294.75
 20
111.327
 30
0.0
 11
280.749
 21
111.327
 31
0.0
  0
LINE
  8
0
 62
     0
 10
49.0883
 20
99.4392
 30
0.0
 11
62.7821
 21
96.5274
 31
0.0
  0
LINE
  8
0
 62
     0
 10
62.7821
 20
96.5274
 30
0.0
 11
65.6939
 21
110.222
 31
0.0
  0
LINE
  8
0
 62
     0
 10
65.6939
 20
110.222
 30
0.0
 11
51.9987
 21
113.133
 31
0.0
  0
LINE
  8
0
 62
     0
 10
51.9987
 20
113.133
 30
0.0
 11
49.0883
 21
99.4392
 31
0.0
  0
LINE
  8
0
 62
     0
 10
229.921
 20
110.845
 30
0.0
 11
232.832
 21
97.1504
 31
0.0
  0
LINE
  8
0
 62
     0
 10
232.832
 20
97.1504
 30
0.0
 11
246.527
 21
100.061
 31
0.0
  0
LINE
  8
0
 62
     0
 10
246.527
 20
100.061
 30
0.0
 11
243.615
 21
113.754
 31
0.0
  0
LINE
  8
0
 62
     0
 10
243.615
 20
113.754
 30
0.0
 11
229.921
 21
110.845
 31
0.0
  0
LINE
  8
0
 62
     0
 10
309.324
 20
111.327
 30
0.0
 11
323.325
 21
111.327
 31
0.0
  0
LINE
  8
0
 62
     0
 10
323.325
 20
111.327
 30
0.0
 11
323.325
 21
97.3282
 31
0.0
  0
LINE
  8
0
 62
     0
 10
323.325
 20
97.3282
 30
0.0
 11
309.324
 21
97.3282
 31
0.0
  0
LINE
  8
0
 62
     0
 10
309.324
 20
97.3282
 30
0.0
 11
309.324
 21
111.327
 31
0.0
  0
LINE
  8
0
 62
     0
 10
252.174
 20
111.327
 30
0.0
 11
266.175
 21
111.327
 31
0.0
  0
LINE
  8
0
 62
     0
 10
266.175
 20
111.327
 30
0.0
 11
266.175
 21
97.3282
 31
0.0
  0
LINE
  8
0
 62
     0
 10
266.175
 20
97.3282
 30
0.0
 11
252.174
 21
97.3282
 31
0.0
  0
LINE
  8
0
 62
     0
 10
252.174
 20
97.3282
 30
0.0
 11
252.174
 21
111.327
 31
0.0
  0
LINE
  8
0
 62
     0
 10
29.2888
 20
111.327
 30
0.0
 11
43.2897
 21
111.327
 31
0.0
  0
LINE
  8
0
 62
     0
 10
43.2897
 20
111.327
 30
0.0
 11
43.2897
 21
97.3282
 31
0.0
  0
LINE
  8
0
 62
     0
 10
43.2897
 20
97.3282
 30
0.0
 11
29.2888
 21
97.3282
 31
0.0
  0
LINE
  8
0
 62
     0
 10
29.2888
 20
97.3282
 30
0.0
 11
29.2888
 21
111.327
 31
0.0
  0
LINE
  8
0
 62
     0
 10
10.2388
 20
111.327
 30
0.0
 11
24.2397
 21
111.327
 31
0.0
  0
LINE
  8
0
 62
     0
 10
24.2397
 20
111.327
 30
0.0
 11
24.2397
 21
97.3282
 31
0.0
  0
LINE
  8
0
 62
     0
 10
24.2397
 20
97.3282
 30
0.0
 11
10.2388
 21
97.3282
 31
0.0
  0
LINE
  8
0
 62
     0
 10
10.2388
 20
97.3282
 30
0.0
 11
10.2388
 21
111.327
 31
0.0
  0
LINE
  8
0
 62
     0
 10
136.901
 20
100.248
 30
0.0
 11
150.596
 21
97.3391
 31
0.0
  0
LINE
  8
0
 62
     0
 10
150.596
 20
97.3391
 30
0.0
 11
153.505
 21
111.033
 31
0.0
  0
LINE
  8
0
 62
     0
 10
153.505
 20
111.033
 30
0.0
 11
139.811
 21
113.943
 31
0.0
  0
LINE
  8
0
 62
     0
 10
139.811
 20
113.943
 30
0.0
 11
136.901
 21
100.248
 31
0.0
  0
LINE
  8
0
 62
     0
 10
118.267
 20
104.21
 30
0.0
 11
131.961
 21
101.298
 31
0.0
  0
LINE
  8
0
 62
     0
 10
131.961
 20
101.298
 30
0.0
 11
134.873
 21
114.993
 31
0.0
  0
LINE
  8
0
 62
     0
 10
134.873
 20
114.993
 30
0.0
 11
121.179
 21
117.904
 31
0.0
  0
LINE
  8
0
 62
     0
 10
121.179
 20
117.904
 30
0.0
 11
118.267
 21
104.21
 31
0.0
  0
LINE
  8
0
 62
     0
 10
159.811
 20
115.419
 30
0.0
 11
162.722
 21
101.724
 31
0.0
  0
LINE
  8
0
 62
     0
 10
162.722
 20
101.724
 30
0.0
 11
176.415
 21
104.633
 31
0.0
  0
LINE
  8
0
 62
     0
 10
176.415
 20
104.633
 30
0.0
 11
173.506
 21
118.329
 31
0.0
  0
LINE
  8
0
 62
     0
 10
173.506
 20
118.329
 30
0.0
 11
159.811
 21
115.419
 31
0.0
  0
LINE
  8
0
 62
     0
 10
99.6336
 20
108.17
 30
0.0
 11
113.327
 21
105.26
 31
0.0
  0
LINE
  8
0
 62
     0
 10
113.327
 20
105.26
 30
0.0
 11
116.239
 21
118.953
 31
0.0
  0
LINE
  8
0
 62
     0
 10
116.239
 20
118.953
 30
0.0
 11
102.544
 21
121.864
 31
0.0
  0
LINE
  8
0
 62
     0
 10
102.544
 20
121.864
 30
0.0
 11
99.6336
 21
108.17
 31
0.0
  0
LINE
  8
0
 62
     0
 10
178.445
 20
119.378
 30
0.0
 11
181.355
 21
105.683
 31
0.0
  0
LINE
  8
0
 62
     0
 10
181.355
 20
105.683
 30
0.0
 11
195.049
 21
108.595
 31
0.0
  0
LINE
  8
0
 62
     0
 10
195.049
 20
108.595
 30
0.0
 11
192.139
 21
122.289
 31
0.0
  0
LINE
  8
0
 62
     0
 10
192.139
 20
122.289
 30
0.0
 11
178.445
 21
119.378
 31
0.0
  0
LINE
  8
0
 62
     0
 10
81.001
 20
112.132
 30
0.0
 11
94.6947
 21
109.221
 31
0.0
  0
LINE
  8
0
 62
     0
 10
94.6947
 20
109.221
 30
0.0
 11
97.6051
 21
122.914
 31
0.0
  0
LINE
  8
0
 62
     0
 10
97.6051
 20
122.914
 30
0.0
 11
83.91
 21
125.826
 31
0.0
  0
LINE
  8
0
 62
     0
 10
83.91
 20
125.826
 30
0.0
 11
81.001
 21
112.132
 31
0.0
  0
LINE
  8
0
 62
     0
 10
197.079
 20
123.339
 30
0.0
 11
199.989
 21
109.645
 31
0.0
  0
LINE
  8
0
 62
     0
 10
199.989
 20
109.645
 30
0.0
 11
213.684
 21
112.556
 31
0.0
  0
LINE
  8
0
 62
     0
 10
213.684
 20
112.556
 30
0.0
 11
210.772
 21
126.25
 31
0.0
  0
LINE
  8
0
 62
     0
 10
210.772
 20
126.25
 30
0.0
 11
197.079
 21
123.339
 31
0.0
  0
LINE
  8
0
 62
     0
 10
62.3658
 20
116.091
 30
0.0
 11
76.0607
 21
113.182
 31
0.0
  0
LINE
  8
0
 62
     0
 10
76.0607
 20
113.182
 30
0.0
 11
78.9711
 21
126.876
 31
0.0
  0
LINE
  8
0
 62
     0
 10
78.9711
 20
126.876
 30
0.0
 11
65.2776
 21
129.786
 31
0.0
  0
LINE
  8
0
 62
     0
 10
65.2776
 20
129.786
 30
0.0
 11
62.3658
 21
116.091
 31
0.0
  0
LINE
  8
0
 62
     0
 10
215.713
 20
127.301
 30
0.0
 11
218.623
 21
113.605
 31
0.0
  0
LINE
  8
0
 62
     0
 10
218.623
 20
113.605
 30
0.0
 11
232.318
 21
116.517
 31
0.0
  0
LINE
  8
0
 62
     0
 10
232.318
 20
116.517
 30
0.0
 11
229.406
 21
130.211
 31
0.0
  0
LINE
  8
0
 62
     0
 10
229.406
 20
130.211
 30
0.0
 11
215.713
 21
127.301
 31
0.0
  0
LINE
  8
0
 62
     0
 10
300.751
 20
130.377
 30
0.0
 11
314.751
 21
130.377
 31
0.0
  0
LINE
  8
0
 62
     0
 10
314.751
 20
130.377
 30
0.0
 11
314.751
 21
116.378
 31
0.0
  0
LINE
  8
0
 62
     0
 10
314.751
 20
116.378
 30
0.0
 11
300.751
 21
116.378
 31
0.0
  0
LINE
  8
0
 62
     0
 10
300.751
 20
116.378
 30
0.0
 11
300.751
 21
130.377
 31
0.0
  0
LINE
  8
0
 62
     0
 10
276.939
 20
130.377
 30
0.0
 11
290.94
 21
130.377
 31
0.0
  0
LINE
  8
0
 62
     0
 10
290.94
 20
130.377
 30
0.0
 11
290.94
 21
116.378
 31
0.0
  0
LINE
  8
0
 62
     0
 10
290.94
 20
116.378
 30
0.0
 11
276.939
 21
116.378
 31
0.0
  0
LINE
  8
0
 62
     0
 10
276.939
 20
116.378
 30
0.0
 11
276.939
 21
130.377
 31
0.0
  0
LINE
  8
0
 62
     0
 10
257.889
 20
130.377
 30
0.0
 11
271.89
 21
130.377
 31
0.0
  0
LINE
  8
0
 62
     0
 10
271.89
 20
130.377
 30
0.0
 11
271.89
 21
116.378
 31
0.0
  0
LINE
  8
0
 62
     0
 10
271.89
 20
116.378
 30
0.0
 11
257.889
 21
116.378
 31
0.0
  0
LINE
  8
0
 62
     0
 10
257.889
 20
116.378
 30
0.0
 11
257.889
 21
130.377
 31
0.0
  0
LINE
  8
0
 62
     0
 10
18.8116
 20
130.377
 30
0.0
 11
32.8111
 21
130.377
 31
0.0
  0
LINE
  8
0
 62
     0
 10
32.8111
 20
130.377
 30
0.0
 11
32.8111
 21
116.378
 31
0.0
  0
LINE
  8
0
 62
     0
 10
32.8111
 20
116.378
 30
0.0
 11
18.8116
 21
116.378
 31
0.0
  0
LINE
  8
0
 62
     0
 10
18.8116
 20
116.378
 30
0.0
 11
18.8116
 21
130.377
 31
0.0
  0
LINE
  8
0
 62
     0
 10
43.7321
 20
120.053
 30
0.0
 11
57.4269
 21
117.142
 31
0.0
  0
LINE
  8
0
 62
     0
 10
57.4269
 20
117.142
 30
0.0
 11
60.3359
 21
130.835
 31
0.0
  0
LINE
  8
0
 62
     0
 10
60.3359
 20
130.835
 30
0.0
 11
46.6439
 21
133.747
 31
0.0
  0
LINE
  8
0
 62
     0
 10
46.6439
 20
133.747
 30
0.0
 11
43.7321
 21
120.053
 31
0.0
  0
LINE
  8
0
 62
     0
 10
234.345
 20
131.261
 30
0.0
 11
237.257
 21
117.567
 31
0.0
  0
LINE
  8
0
 62
     0
 10
237.257
 20
117.567
 30
0.0
 11
250.95
 21
120.476
 31
0.0
  0
LINE
  8
0
 62
     0
 10
250.95
 20
120.476
 30
0.0
 11
248.04
 21
134.171
 31
0.0
  0
LINE
  8
0
 62
     0
 10
248.04
 20
134.171
 30
0.0
 11
234.345
 21
131.261
 31
0.0
  0
ENDSEC
  0
EOF
